<svg width="122" height="99" viewBox="0 0 122 99" fill="none" xmlns="http://www.w3.org/2000/svg">
<path d="M21.7322 67.42C28.7622 47.04 46.4222 31.32 19.9422 0C19.9422 0 25.9122 14.71 17.7122 36.32C16.5322 39.43 16.8722 38.56 16.9522 38.37C16.9422 38.39 16.9322 38.42 16.9122 38.47C10.3622 55.32 7.20216 65.2 10.3922 75.87C12.3922 82.53 16.8622 89.51 24.5422 98.67C24.5822 98.71 24.3222 98.19 23.9022 97.32C22.4522 94.36 18.0622 84.26 20.1622 72.99C20.6022 70.69 21.1622 69.07 21.7322 67.42Z" fill="white"/>
<path d="M24.5527 98.6599C24.7027 98.8499 24.7927 98.9499 24.7927 98.9499C24.7027 98.8499 24.6327 98.7599 24.5527 98.6599Z" fill="white"/>
<path d="M6.36271 41.4101C10.0127 31.2301 19.0127 23.3201 5.80271 7.83008C5.80271 7.83008 8.74271 15.1301 4.49271 25.9301C3.89271 27.4601 4.0527 27.0601 4.0927 26.9601C4.0927 26.9701 4.08271 26.9801 4.07271 27.0101C-1.43729 40.6901 -2.34729 45.1801 7.62271 56.9601C6.88271 56.0301 3.05271 50.6201 6.36271 41.4101Z" fill="white"/>
<path d="M7.62305 56.95C7.70305 57.04 7.74304 57.09 7.74304 57.09C7.70304 57.05 7.66305 57 7.62305 56.95Z" fill="white"/>
<path d="M45.2835 67.8499H46.4035C48.0835 69.2499 48.9235 70.6299 48.9235 71.9999C48.9235 72.5499 48.7935 73.0399 48.5335 73.4699C48.2735 73.8899 47.9135 74.2299 47.4535 74.4699C46.9935 74.7099 46.4535 74.8299 45.8435 74.8299C45.2335 74.8299 44.6935 74.7099 44.2335 74.4699C43.7735 74.2299 43.4035 73.8999 43.1535 73.4699C42.8935 73.0399 42.7735 72.5499 42.7735 72.0099C42.7635 70.6399 43.6035 69.2599 45.2835 67.8499ZM45.5935 68.8699C44.9335 69.4399 44.4435 69.9899 44.1335 70.5099C43.8235 71.0299 43.6635 71.5299 43.6635 72.0099C43.6635 72.3699 43.7535 72.6799 43.9335 72.9499C44.1135 73.2199 44.3635 73.4399 44.6935 73.5899C45.0235 73.7399 45.4035 73.8199 45.8535 73.8199C46.2935 73.8199 46.6835 73.7399 47.0035 73.5899C47.3235 73.4399 47.5735 73.2299 47.7535 72.9499C47.9335 72.6799 48.0235 72.3599 48.0235 71.9899C48.0235 71.5099 47.8635 71.0099 47.5535 70.4899C47.2435 69.9699 46.7635 69.4199 46.1135 68.8499H45.5935V68.8699ZM45.1035 66.4099C44.9335 66.4099 44.7935 66.3499 44.6735 66.2299C44.5535 66.1099 44.4935 65.9699 44.4935 65.7899C44.4935 65.6099 44.5535 65.4599 44.6735 65.3399C44.7935 65.2199 44.9435 65.1599 45.1135 65.1599C45.2835 65.1599 45.4335 65.2199 45.5535 65.3399C45.6735 65.4599 45.7335 65.6099 45.7335 65.7899C45.7335 65.9599 45.6735 66.1099 45.5535 66.2299C45.4335 66.3499 45.2835 66.4099 45.1035 66.4099ZM46.5835 66.4099C46.4135 66.4099 46.2635 66.3499 46.1435 66.2299C46.0235 66.1099 45.9635 65.9699 45.9635 65.7899C45.9635 65.6099 46.0235 65.4599 46.1435 65.3399C46.2635 65.2199 46.4135 65.1599 46.5835 65.1599C46.7535 65.1599 46.9035 65.2199 47.0235 65.3399C47.1435 65.4599 47.2035 65.6099 47.2035 65.7899C47.2035 65.9599 47.1435 66.1099 47.0235 66.2299C46.9035 66.3499 46.7635 66.4099 46.5835 66.4099Z" fill="white"/>
<path d="M50.2031 74.8299V73.8199H56.1631V74.8299H50.2031ZM55.4431 74.8299C55.4331 73.8399 55.2731 72.9499 54.9431 72.1599C54.6231 71.3699 54.1531 70.7199 53.5431 70.1999C52.9331 69.6799 52.1831 69.3299 51.3031 69.1499L51.5031 68.1599C52.4931 68.3699 53.3531 68.7799 54.0731 69.3799C54.7931 69.9899 55.3531 70.7499 55.7531 71.6699C56.1531 72.5899 56.3431 73.6399 56.3431 74.8199H55.4431V74.8299Z" fill="white"/>
<path d="M60.7842 74.83C60.1442 74.83 59.5742 74.69 59.0942 74.4C58.6142 74.11 58.2342 73.73 57.9742 73.24C57.7042 72.75 57.5742 72.22 57.5742 71.63C57.5742 71.15 57.6642 70.69 57.8442 70.28C58.0242 69.87 58.2742 69.5 58.5942 69.19C58.9142 68.88 59.2842 68.64 59.7042 68.47C60.1242 68.3 60.5742 68.21 61.0642 68.21C61.5042 68.21 61.9442 68.28 62.3642 68.41C62.7842 68.54 63.1642 68.69 63.5042 68.85L63.1042 69.76C62.3542 69.4 61.6742 69.23 61.0642 69.23C60.5742 69.23 60.1342 69.34 59.7542 69.56C59.3642 69.78 59.0542 70.06 58.8242 70.42C58.5942 70.78 58.4742 71.19 58.4742 71.64C58.4742 72.06 58.5742 72.44 58.7642 72.77C58.9642 73.1 59.2342 73.36 59.5842 73.54C59.9342 73.73 60.3342 73.82 60.7842 73.82H63.0742V74.83H60.7842ZM58.2742 78.21V77.2H60.8642C61.4742 77.2 61.9142 77.06 62.1842 76.78C62.4542 76.5 62.5842 76.06 62.5842 75.47V68.85H63.4942V75.47C63.4942 76.06 63.3942 76.56 63.1842 76.96C62.9742 77.36 62.6842 77.68 62.2942 77.89C61.9042 78.1 61.4242 78.21 60.8542 78.21H58.2742Z" fill="white"/>
<path d="M65.9844 74.8299V73.8199H71.9444V74.8299H65.9844ZM71.2144 74.8299C71.2044 73.8399 71.0444 72.9499 70.7144 72.1599C70.3944 71.3699 69.9244 70.7199 69.3144 70.1999C68.7044 69.6799 67.9544 69.3299 67.0744 69.1499L67.2744 68.1599C68.2644 68.3699 69.1244 68.7799 69.8444 69.3799C70.5644 69.9899 71.1244 70.7499 71.5244 71.6699C71.9244 72.5899 72.1144 73.6399 72.1144 74.8199H71.2144V74.8299ZM71.0244 74.8299V73.8199H73.1244V74.8299H71.0244ZM73.1244 74.8299V73.8199C73.2244 73.8199 73.2944 73.8699 73.3344 73.9599C73.3744 74.0499 73.3844 74.1699 73.3844 74.3299C73.3844 74.4799 73.3644 74.5999 73.3344 74.6899C73.2944 74.7899 73.2344 74.8299 73.1244 74.8299Z" fill="white"/>
<path d="M73.1233 74.8301C73.0133 74.8301 72.9533 74.7801 72.9133 74.6901C72.8733 74.5901 72.8633 74.4701 72.8633 74.3101C72.8633 74.1501 72.8833 74.0301 72.9133 73.9501C72.9533 73.8601 73.0133 73.8201 73.1233 73.8201V74.8301ZM73.1233 74.8301V73.8201H75.1033V74.8301H73.1233ZM75.1133 74.8301V73.8201C75.2233 73.8201 75.3033 73.8701 75.3333 73.9601C75.3633 74.0501 75.3833 74.1701 75.3833 74.3301C75.3833 74.4801 75.3633 74.6001 75.3333 74.6901C75.2933 74.7901 75.2233 74.8301 75.1133 74.8301Z" fill="white"/>
<path d="M75.1135 74.8301C75.0135 74.8301 74.9435 74.7801 74.9035 74.6901C74.8735 74.5901 74.8535 74.4701 74.8535 74.3101C74.8535 74.1501 74.8735 74.0301 74.9035 73.9501C74.9435 73.8601 75.0135 73.8201 75.1135 73.8201V74.8301ZM75.1135 74.8301V73.8201H77.1035V74.8301H75.1135ZM77.0935 74.8301V73.8201C77.2035 73.8201 77.2735 73.8701 77.3135 73.9601C77.3435 74.0501 77.3535 74.1701 77.3535 74.3301C77.3535 74.4801 77.3435 74.6001 77.3135 74.6901C77.2835 74.7901 77.2035 74.8301 77.0935 74.8301Z" fill="white"/>
<path d="M77.094 74.8301C76.994 74.8301 76.924 74.7801 76.884 74.6901C76.854 74.5901 76.834 74.4701 76.834 74.3101C76.834 74.1501 76.854 74.0301 76.884 73.9501C76.924 73.8601 76.984 73.8201 77.094 73.8201V74.8301ZM77.094 74.8301V73.8201H79.084V74.8301H77.094ZM79.084 74.8301V73.8201C79.194 73.8201 79.264 73.8701 79.294 73.9601C79.324 74.0501 79.344 74.1701 79.344 74.3301C79.344 74.4801 79.334 74.6001 79.294 74.6901C79.264 74.7901 79.194 74.8301 79.084 74.8301Z" fill="white"/>
<path d="M79.0842 74.8301C78.9742 74.8301 78.9142 74.7801 78.8742 74.6901C78.8342 74.5901 78.8242 74.4701 78.8242 74.3101C78.8242 74.1501 78.8442 74.0301 78.8742 73.9501C78.9142 73.8601 78.9742 73.8201 79.0842 73.8201V74.8301ZM79.0842 74.8301V73.8201H81.0642V74.8301H79.0842ZM81.0642 74.8301V73.8201C81.1742 73.8201 81.2542 73.8701 81.2842 73.9601C81.3142 74.0501 81.3342 74.1701 81.3342 74.3301C81.3342 74.4801 81.3142 74.6001 81.2842 74.6901C81.2542 74.7901 81.1742 74.8301 81.0642 74.8301Z" fill="white"/>
<path d="M81.0627 74.8301C80.9627 74.8301 80.8927 74.7801 80.8527 74.6901C80.8127 74.5901 80.8027 74.4701 80.8027 74.3101C80.8027 74.1501 80.8227 74.0301 80.8527 73.9501C80.8927 73.8601 80.9527 73.8201 81.0627 73.8201V74.8301ZM81.0627 74.8301V73.8201H83.0427V74.8301H81.0627ZM83.0427 74.8301V73.8201C83.1527 73.8201 83.2327 73.8701 83.2627 73.9601C83.2927 74.0501 83.3027 74.1701 83.3027 74.3301C83.3027 74.4801 83.2827 74.6001 83.2627 74.6901C83.2327 74.7901 83.1627 74.8301 83.0427 74.8301Z" fill="white"/>
<path d="M83.0432 74.8299C82.9432 74.8299 82.8732 74.7799 82.8332 74.6899C82.8032 74.5899 82.7832 74.4699 82.7832 74.3099C82.7832 74.1499 82.8032 74.0299 82.8332 73.9499C82.8732 73.8599 82.9432 73.8199 83.0432 73.8199V74.8299ZM83.0432 74.8299V73.8199H90.3932L90.2332 74.8299H83.0432ZM89.0332 74.8299V71.4899C89.0332 71.0199 88.9132 70.6099 88.6832 70.2699C88.4532 69.9199 88.1332 69.6499 87.7132 69.4599C87.3032 69.2699 86.8032 69.1699 86.2332 69.1699C85.8032 69.1699 85.3932 69.2199 85.0032 69.3299C84.6132 69.4399 84.2532 69.5699 83.9432 69.7499L83.5632 68.9299C83.9732 68.6699 84.4032 68.4799 84.8632 68.3499C85.3232 68.2199 85.7832 68.1599 86.2532 68.1599C86.8032 68.1599 87.3032 68.2399 87.7532 68.3999C88.2032 68.5599 88.5932 68.7899 88.9132 69.0899C89.2332 69.3899 89.4932 69.7399 89.6732 70.1499C89.8532 70.5599 89.9432 71.0099 89.9432 71.4999V74.8399H89.0332V74.8299ZM89.6832 74.8299V73.8199H91.3432V74.8299H89.6832ZM91.3432 74.8299V73.8199C91.4432 73.8199 91.5132 73.8699 91.5532 73.9599C91.5932 74.0499 91.6032 74.1699 91.6032 74.3299C91.6032 74.4799 91.5832 74.5999 91.5532 74.6899C91.5132 74.7899 91.4432 74.8299 91.3432 74.8299Z" fill="white"/>
<path d="M91.344 74.8301C91.244 74.8301 91.174 74.7801 91.134 74.6901C91.104 74.5901 91.084 74.4701 91.084 74.3101C91.084 74.1501 91.104 74.0301 91.134 73.9501C91.174 73.8601 91.244 73.8201 91.344 73.8201V74.8301ZM91.344 74.8301V73.8201H93.334V74.8301H91.344ZM93.324 74.8301V73.8201C93.434 73.8201 93.504 73.8701 93.544 73.9601C93.574 74.0501 93.584 74.1701 93.584 74.3301C93.584 74.4801 93.574 74.6001 93.544 74.6901C93.514 74.7901 93.444 74.8301 93.324 74.8301Z" fill="white"/>
<path d="M93.3244 74.8301C93.2244 74.8301 93.1544 74.7801 93.1144 74.6901C93.0844 74.5901 93.0645 74.4701 93.0645 74.3101C93.0645 74.1501 93.0844 74.0301 93.1144 73.9501C93.1544 73.8601 93.2144 73.8201 93.3244 73.8201V74.8301ZM93.3244 74.8301V73.8201H95.3145V74.8301H93.3244ZM95.3145 74.8301V73.8201C95.4245 73.8201 95.4944 73.8701 95.5244 73.9601C95.5544 74.0501 95.5744 74.1701 95.5744 74.3301C95.5744 74.4801 95.5644 74.6001 95.5244 74.6901C95.4944 74.7901 95.4245 74.8301 95.3145 74.8301Z" fill="white"/>
<path d="M95.3127 74.8301C95.2027 74.8301 95.1427 74.7801 95.1027 74.6901C95.0627 74.5901 95.0527 74.4701 95.0527 74.3101C95.0527 74.1501 95.0727 74.0301 95.1027 73.9501C95.1427 73.8601 95.2027 73.8201 95.3127 73.8201V74.8301ZM95.3127 74.8301V73.8201H97.2927V74.8301H95.3127ZM97.2927 74.8301V73.8201C97.4027 73.8201 97.4827 73.8701 97.5127 73.9601C97.5427 74.0501 97.5627 74.1701 97.5627 74.3301C97.5627 74.4801 97.5427 74.6001 97.5127 74.6901C97.4827 74.7901 97.4127 74.8301 97.2927 74.8301Z" fill="white"/>
<path d="M97.2932 74.83C97.1932 74.83 97.1232 74.78 97.0832 74.69C97.0432 74.59 97.0332 74.47 97.0332 74.31C97.0332 74.15 97.0532 74.03 97.0832 73.95C97.1232 73.86 97.1832 73.82 97.2932 73.82V74.83ZM97.2932 74.83V73.82C97.7032 73.82 98.0432 73.73 98.3132 73.56C98.5832 73.39 98.8232 73.15 99.0232 72.85C99.2332 72.55 99.4332 72.2 99.6332 71.82C99.8232 71.46 100.033 71.09 100.243 70.73C100.463 70.37 100.703 70.04 100.963 69.75C101.223 69.46 101.513 69.22 101.843 69.04C102.173 68.86 102.533 68.77 102.943 68.77C103.383 68.77 103.773 68.87 104.083 69.06C104.403 69.25 104.653 69.5 104.843 69.82C105.033 70.14 105.173 70.49 105.263 70.87C105.353 71.25 105.403 71.64 105.403 72.03C105.403 72.46 105.343 72.95 105.223 73.49C105.103 74.03 104.913 74.54 104.643 75L103.863 74.51C104.063 74.15 104.223 73.76 104.323 73.33C104.433 72.9 104.483 72.46 104.483 72.03C104.483 71.3 104.353 70.75 104.083 70.36C103.813 69.97 103.433 69.78 102.933 69.78C102.593 69.78 102.293 69.88 102.023 70.08C101.753 70.28 101.493 70.57 101.243 70.94C100.983 71.31 100.713 71.77 100.413 72.32C100.123 72.84 99.8432 73.29 99.5532 73.67C99.2632 74.05 98.9432 74.34 98.5832 74.53C98.2232 74.72 97.8032 74.83 97.2932 74.83ZM104.593 74L104.643 75.01C103.883 75.05 103.223 75.05 102.663 74.99C102.103 74.93 101.613 74.84 101.193 74.7C100.773 74.56 100.403 74.38 100.083 74.16C99.7632 73.94 99.4632 73.68 99.1832 73.39L99.8332 72.69C100.183 73.05 100.563 73.33 100.993 73.54C101.423 73.75 101.913 73.89 102.503 73.96C103.093 74.03 103.783 74.05 104.593 74ZM106.773 74.83C106.273 74.83 105.853 74.75 105.533 74.58C105.213 74.42 104.973 74.16 104.813 73.83C104.653 73.49 104.573 73.06 104.573 72.54V72.07H105.393V72.54C105.393 72.87 105.433 73.13 105.503 73.31C105.573 73.5 105.713 73.63 105.913 73.7C106.113 73.77 106.393 73.81 106.763 73.81H107.173V74.82H106.773V74.83ZM107.183 74.83V73.82C107.283 73.82 107.353 73.87 107.393 73.96C107.433 74.05 107.443 74.17 107.443 74.33C107.443 74.48 107.423 74.6 107.393 74.69C107.353 74.79 107.283 74.83 107.183 74.83Z" fill="white"/>
<path d="M107.184 74.8301C107.084 74.8301 107.014 74.7801 106.974 74.6901C106.944 74.5901 106.924 74.4701 106.924 74.3101C106.924 74.1501 106.944 74.0301 106.974 73.9501C107.014 73.8601 107.074 73.8201 107.184 73.8201V74.8301ZM107.184 74.8301V73.8201H109.174V74.8301H107.184ZM109.164 74.8301V73.8201C109.274 73.8201 109.344 73.8701 109.374 73.9601C109.404 74.0501 109.424 74.1701 109.424 74.3301C109.424 74.4801 109.414 74.6001 109.374 74.6901C109.354 74.7901 109.284 74.8301 109.164 74.8301Z" fill="white"/>
<path d="M109.164 74.8301C109.054 74.8301 108.994 74.7801 108.954 74.6901C108.914 74.5901 108.904 74.4701 108.904 74.3101C108.904 74.1501 108.924 74.0301 108.954 73.9501C108.994 73.8601 109.054 73.8201 109.164 73.8201V74.8301ZM109.164 74.8301V73.8201H111.144V74.8301H109.164ZM111.154 74.8301V73.8201C111.264 73.8201 111.344 73.8701 111.374 73.9601C111.404 74.0501 111.424 74.1701 111.424 74.3301C111.424 74.4801 111.404 74.6001 111.374 74.6901C111.334 74.7901 111.264 74.8301 111.154 74.8301Z" fill="white"/>
<path d="M111.153 74.8301C111.053 74.8301 110.983 74.7801 110.943 74.6901C110.913 74.5901 110.893 74.4701 110.893 74.3101C110.893 74.1501 110.913 74.0301 110.943 73.9501C110.983 73.8601 111.053 73.8201 111.153 73.8201V74.8301ZM111.153 74.8301V73.8201H113.143V74.8301H111.153ZM113.133 74.8301V73.8201C113.243 73.8201 113.313 73.8701 113.353 73.9601C113.383 74.0501 113.393 74.1701 113.393 74.3301C113.393 74.4801 113.383 74.6001 113.353 74.6901C113.323 74.7901 113.253 74.8301 113.133 74.8301Z" fill="white"/>
<path d="M113.133 74.83C113.033 74.83 112.963 74.78 112.923 74.69C112.893 74.59 112.873 74.47 112.873 74.31C112.873 74.15 112.893 74.03 112.923 73.95C112.963 73.86 113.023 73.82 113.133 73.82V74.83ZM113.133 74.83V73.82H114.743V64.28H115.653V74.84H113.133V74.83Z" fill="white"/>
<path d="M118.664 74.83V64.27H119.564V74.83H118.664Z" fill="white"/>
<path d="M44.1233 79.9402H45.0833V87.5102H48.7833V88.3402H44.1133V79.9402H44.1233Z" fill="white"/>
<path d="M50.9238 79.9402H51.8838V88.3402H50.9238V79.9402Z" fill="white"/>
<path d="M55.0137 79.9402H56.1837L59.4037 86.1302L62.5837 79.9402H63.7637V88.3402H62.8637L62.8537 81.2502L59.6737 87.4402H59.1237L55.9137 81.2502V88.3402H55.0237V79.9402H55.0137Z" fill="white"/>
<path d="M66.8828 79.9402H67.8428V88.3402H66.8828V79.9402Z" fill="white"/>
<path d="M69.8242 79.9402H76.2942V80.7802H73.5342V88.3402H72.5742V80.7802H69.8242V79.9402Z" fill="white"/>
<path d="M78.2637 79.9402H83.9937V80.7802H79.2337V83.6602H83.4837V84.4902H79.2337V87.5102H84.1537V88.3402H78.2737V79.9402H78.2637Z" fill="white"/>
<path d="M90.0738 79.9402C90.6938 79.9402 91.2638 80.0502 91.7938 80.2602C92.3238 80.4702 92.7838 80.7702 93.1738 81.1502C93.5638 81.5302 93.8738 81.9802 94.0938 82.4902C94.3138 83.0002 94.4238 83.5502 94.4238 84.1502C94.4238 84.7502 94.3138 85.3002 94.0938 85.8102C93.8738 86.3102 93.5638 86.7602 93.1738 87.1402C92.7838 87.5202 92.3138 87.8202 91.7838 88.0302C91.2538 88.2402 90.6738 88.3502 90.0638 88.3502H86.6738V79.9502H90.0738V79.9402ZM90.1038 87.5102C90.5738 87.5102 91.0138 87.4302 91.4138 87.2602C91.8138 87.0902 92.1738 86.8502 92.4738 86.5502C92.7738 86.2502 93.0138 85.8802 93.1938 85.4802C93.3638 85.0702 93.4538 84.6302 93.4538 84.1602C93.4538 83.6802 93.3638 83.2402 93.1938 82.8302C93.0138 82.4202 92.7738 82.0602 92.4738 81.7602C92.1738 81.4502 91.8138 81.2102 91.4038 81.0502C90.9938 80.8902 90.5538 80.8002 90.0738 80.8002H87.6538V87.5302H90.1038V87.5102Z" fill="white"/>
<path d="M105.934 81.7401C105.614 81.4101 105.234 81.1501 104.794 80.9701C104.354 80.7901 103.904 80.6901 103.434 80.6901C102.964 80.6901 102.514 80.7801 102.094 80.9501C101.674 81.1301 101.314 81.3701 100.994 81.6901C100.684 82.0101 100.434 82.3701 100.254 82.7901C100.074 83.2101 99.9937 83.6501 99.9937 84.1301C99.9937 84.6001 100.084 85.0501 100.254 85.4601C100.434 85.8801 100.674 86.2401 100.994 86.5501C101.304 86.8601 101.674 87.1101 102.094 87.2901C102.514 87.4701 102.954 87.5601 103.434 87.5601C103.904 87.5601 104.354 87.4701 104.774 87.2901C105.204 87.1101 105.584 86.8601 105.924 86.5401L106.514 87.1401C106.244 87.4001 105.934 87.6201 105.594 87.8101C105.254 88.0001 104.894 88.1501 104.524 88.2501C104.154 88.3501 103.774 88.4101 103.384 88.4101C102.774 88.4101 102.204 88.3001 101.674 88.0801C101.144 87.8601 100.684 87.5501 100.284 87.1601C99.8837 86.7701 99.5737 86.3101 99.3537 85.7901C99.1237 85.2701 99.0137 84.7101 99.0137 84.1201C99.0137 83.5301 99.1237 82.9801 99.3537 82.4601C99.5737 81.9501 99.8937 81.5001 100.294 81.1001C100.694 80.7101 101.164 80.4001 101.694 80.1901C102.224 79.9701 102.794 79.8701 103.414 79.8701C103.804 79.8701 104.174 79.9201 104.544 80.0101C104.914 80.1101 105.264 80.2401 105.594 80.4201C105.924 80.6001 106.224 80.8201 106.494 81.0701L105.934 81.7401Z" fill="white"/>
<path d="M113.123 79.8801C113.733 79.8801 114.303 79.9901 114.843 80.2001C115.373 80.4201 115.843 80.7201 116.243 81.1101C116.643 81.5001 116.963 81.9501 117.193 82.4701C117.423 82.9801 117.533 83.5301 117.533 84.1301C117.533 84.7301 117.423 85.2801 117.193 85.8001C116.963 86.3201 116.653 86.7801 116.243 87.1701C115.843 87.5601 115.373 87.8701 114.843 88.0901C114.313 88.3101 113.733 88.4201 113.123 88.4201C112.503 88.4201 111.923 88.3101 111.393 88.0901C110.863 87.8701 110.393 87.5601 109.993 87.1701C109.593 86.7801 109.273 86.3201 109.043 85.8001C108.813 85.2801 108.703 84.7201 108.703 84.1301C108.703 83.5401 108.813 82.9801 109.043 82.4701C109.273 81.9501 109.583 81.5001 109.993 81.1101C110.393 80.7201 110.863 80.4201 111.393 80.2001C111.933 79.9901 112.503 79.8801 113.123 79.8801ZM113.123 80.6901C112.653 80.6901 112.203 80.7801 111.793 80.9501C111.383 81.1201 111.013 81.3701 110.693 81.6901C110.373 82.0101 110.123 82.3701 109.943 82.7901C109.763 83.2101 109.673 83.6501 109.673 84.1201C109.673 84.6001 109.763 85.0501 109.943 85.4601C110.123 85.8801 110.373 86.2401 110.693 86.5601C111.013 86.8801 111.383 87.1301 111.793 87.3001C112.203 87.4801 112.643 87.5601 113.113 87.5601C113.583 87.5601 114.033 87.4701 114.443 87.3001C114.853 87.1201 115.223 86.8801 115.533 86.5601C115.843 86.2401 116.093 85.8701 116.273 85.4601C116.453 85.0401 116.543 84.6001 116.543 84.1201C116.543 83.6501 116.453 83.2001 116.273 82.7901C116.093 82.3801 115.853 82.0101 115.533 81.6901C115.223 81.3701 114.853 81.1301 114.443 80.9501C114.033 80.7701 113.603 80.6901 113.123 80.6901Z" fill="white"/>
<path d="M120.604 87.26C120.764 87.26 120.904 87.32 121.014 87.43C121.124 87.54 121.184 87.68 121.184 87.85C121.184 88.02 121.124 88.16 121.014 88.27C120.904 88.38 120.764 88.44 120.604 88.44C120.434 88.44 120.294 88.38 120.184 88.27C120.074 88.16 120.014 88.02 120.014 87.85C120.014 87.68 120.074 87.54 120.184 87.43C120.294 87.31 120.434 87.26 120.604 87.26Z" fill="white"/>
<path d="M42.1426 38.6C42.9826 38.62 43.6526 38.54 44.1526 38.35C44.6526 38.17 45.0226 37.86 45.2526 37.43C45.4826 37 45.5926 36.44 45.5926 35.77V22.04H48.2326V35.77C48.2326 36.97 48.0026 37.99 47.5526 38.84C47.1026 39.69 46.4626 40.34 45.6326 40.79C44.8026 41.24 43.8126 41.47 42.6426 41.49L42.1426 38.6ZM47.4926 34.57V31.58H51.3326V34.57H47.4926ZM51.3326 34.57V31.58C51.5226 31.58 51.6626 31.71 51.7426 31.98C51.8226 32.25 51.8626 32.61 51.8626 33.06C51.8626 33.51 51.8226 33.87 51.7426 34.15C51.6626 34.43 51.5226 34.57 51.3326 34.57Z" fill="white"/>
<path d="M51.3327 34.5701C51.1427 34.5701 51.0027 34.4301 50.9227 34.1501C50.8427 33.8701 50.8027 33.5001 50.8027 33.0301C50.8027 32.5801 50.8427 32.2201 50.9227 31.9601C51.0027 31.7001 51.1327 31.5701 51.3327 31.5701V34.5701ZM51.3327 34.5701V31.5801H55.8527V34.5701H51.3327ZM55.8527 34.5701V31.5801C56.0427 31.5801 56.1827 31.7101 56.2527 31.9801C56.3327 32.2501 56.3727 32.6101 56.3727 33.0601C56.3727 33.5101 56.3327 33.8701 56.2527 34.1501C56.1727 34.4301 56.0427 34.5701 55.8527 34.5701Z" fill="white"/>
<path d="M55.8523 34.5701C55.6623 34.5701 55.5223 34.4301 55.4423 34.1501C55.3623 33.8701 55.3223 33.5001 55.3223 33.0301C55.3223 32.5801 55.3623 32.2201 55.4423 31.9601C55.5223 31.7001 55.6523 31.5701 55.8523 31.5701V34.5701ZM55.8523 34.5701V31.5801H60.3723V34.5701H55.8523ZM60.3723 34.5701V31.5801C60.5623 31.5801 60.7023 31.7101 60.7723 31.9801C60.8523 32.2501 60.8923 32.6101 60.8923 33.0601C60.8923 33.5101 60.8523 33.8701 60.7723 34.1501C60.6923 34.4301 60.5623 34.5701 60.3723 34.5701Z" fill="white"/>
<path d="M60.3735 34.57C60.1835 34.57 60.0435 34.43 59.9735 34.15C59.8935 33.87 59.8535 33.5 59.8535 33.03C59.8535 32.58 59.8935 32.22 59.9735 31.96C60.0535 31.7 60.1835 31.57 60.3735 31.57V34.57ZM60.3735 34.57V31.58H61.7035C62.4535 31.58 63.0135 31.52 63.3735 31.41C63.7435 31.3 63.9835 31.09 64.1035 30.77C64.2235 30.46 64.2835 30.01 64.2835 29.42V22.04H66.9235V29.42C66.9235 30.58 66.7435 31.54 66.3735 32.31C66.0035 33.07 65.4435 33.64 64.6735 34.01C63.9035 34.38 62.9135 34.57 61.6935 34.57H60.3735ZM63.7635 40.92C63.3135 40.92 62.9335 40.76 62.6235 40.45C62.3135 40.14 62.1635 39.76 62.1635 39.33C62.1635 38.86 62.3135 38.48 62.6235 38.19C62.9335 37.9 63.3035 37.75 63.7635 37.75C64.2235 37.75 64.5935 37.9 64.9035 38.19C65.2035 38.48 65.3635 38.87 65.3635 39.33C65.3635 39.76 65.2135 40.14 64.9035 40.45C64.5935 40.76 64.2135 40.92 63.7635 40.92ZM69.5135 34.57C68.2935 34.57 67.3035 34.38 66.5335 34.01C65.7635 33.64 65.2035 33.07 64.8335 32.31C64.4635 31.55 64.2835 30.59 64.2835 29.42H66.9235C66.9235 30.01 66.9835 30.46 67.1035 30.77C67.2235 31.08 67.4735 31.29 67.8435 31.41C68.2135 31.52 68.7735 31.58 69.5035 31.58H70.5735V34.57H69.5135ZM67.4735 40.92C67.0235 40.92 66.6435 40.76 66.3335 40.45C66.0235 40.14 65.8735 39.76 65.8735 39.33C65.8735 38.86 66.0235 38.48 66.3335 38.19C66.6335 37.9 67.0135 37.75 67.4735 37.75C67.9335 37.75 68.3035 37.9 68.6135 38.19C68.9135 38.48 69.0735 38.87 69.0735 39.33C69.0735 39.76 68.9235 40.14 68.6135 40.45C68.3035 40.76 67.9235 40.92 67.4735 40.92ZM70.5835 34.57V31.58C70.7735 31.58 70.9135 31.71 70.9835 31.98C71.0635 32.25 71.1035 32.61 71.1035 33.06C71.1035 33.51 71.0635 33.87 70.9835 34.15C70.9035 34.43 70.7735 34.57 70.5835 34.57Z" fill="white"/>
<path d="M70.5827 34.5701C70.3927 34.5701 70.2527 34.4301 70.1727 34.1501C70.0927 33.8701 70.0527 33.5001 70.0527 33.0301C70.0527 32.5801 70.0927 32.2201 70.1727 31.9601C70.2527 31.7001 70.3827 31.5701 70.5827 31.5701V34.5701ZM70.5827 34.5701V31.5801H75.1027V34.5701H70.5827ZM75.1027 34.5701V31.5801C75.2927 31.5801 75.4327 31.7101 75.5027 31.9801C75.5827 32.2501 75.6227 32.6101 75.6227 33.0601C75.6227 33.5101 75.5827 33.8701 75.5027 34.1501C75.4227 34.4301 75.2927 34.5701 75.1027 34.5701Z" fill="white"/>
<path d="M75.102 34.5701C74.912 34.5701 74.772 34.4301 74.702 34.1501C74.622 33.8701 74.582 33.5001 74.582 33.0301C74.582 32.5801 74.622 32.2201 74.702 31.9601C74.782 31.7001 74.912 31.5701 75.102 31.5701V34.5701ZM75.102 34.5701V31.5801H79.622V34.5701H75.102ZM79.612 34.5701V31.5801C79.802 31.5801 79.942 31.7101 80.022 31.9801C80.102 32.2501 80.142 32.6101 80.142 33.0601C80.142 33.5101 80.102 33.8701 80.022 34.1501C79.942 34.4301 79.812 34.5701 79.612 34.5701Z" fill="white"/>
<path d="M79.6118 34.57C79.4218 34.57 79.2818 34.43 79.2118 34.15C79.1318 33.87 79.0918 33.5 79.0918 33.03C79.0918 32.58 79.1318 32.22 79.2118 31.96C79.2918 31.7 79.4218 31.57 79.6118 31.57V34.57ZM79.6118 34.57V31.58H80.9218C81.6718 31.58 82.2318 31.52 82.5918 31.41C82.9618 31.3 83.2018 31.09 83.3218 30.77C83.4418 30.45 83.5018 30.01 83.5018 29.42V24.61H86.1418V29.42C86.1418 30.58 85.9618 31.54 85.5918 32.31C85.2218 33.07 84.6618 33.64 83.8918 34.01C83.1218 34.38 82.1318 34.57 80.9118 34.57H79.6118ZM88.6018 34.57C88.0218 34.57 87.4618 34.47 86.9218 34.26C86.3718 34.05 85.8718 33.72 85.4218 33.26C84.9718 32.8 84.6118 32.22 84.3518 31.51L86.1018 30.31C86.2618 30.76 86.5418 31.11 86.9518 31.35C87.3618 31.59 87.7918 31.71 88.2418 31.71C88.8018 31.71 89.3018 31.52 89.7618 31.15C90.2118 30.78 90.4418 30.2 90.4418 29.42V23.31H93.0718V29.42C93.0718 30.58 92.8518 31.54 92.4218 32.31C91.9818 33.07 91.4318 33.64 90.7518 34.01C90.0618 34.38 89.3518 34.57 88.6018 34.57ZM95.5218 34.57C94.9518 34.57 94.3818 34.47 93.8418 34.26C93.2918 34.05 92.7918 33.72 92.3418 33.26C91.8918 32.8 91.5318 32.22 91.2718 31.51L93.0218 30.31C93.1818 30.76 93.4618 31.11 93.8718 31.35C94.2818 31.59 94.7118 31.71 95.1618 31.71C95.7218 31.71 96.2218 31.52 96.6718 31.15C97.1218 30.78 97.3518 30.2 97.3518 29.42V22.04H99.9918V29.42C99.9918 30.58 99.7718 31.54 99.3418 32.31C98.9018 33.07 98.3518 33.64 97.6718 34.01C96.9818 34.38 96.2718 34.57 95.5218 34.57ZM102.572 34.57C101.352 34.57 100.362 34.38 99.5918 34.01C98.8218 33.64 98.2618 33.07 97.8918 32.31C97.5218 31.55 97.3418 30.59 97.3418 29.42H99.9818C99.9818 30.01 100.042 30.46 100.162 30.77C100.282 31.08 100.532 31.29 100.902 31.41C101.282 31.52 101.832 31.58 102.562 31.58H103.632V34.57H102.572ZM103.642 34.57V31.58C103.832 31.58 103.972 31.71 104.052 31.98C104.132 32.25 104.172 32.61 104.172 33.06C104.172 33.51 104.132 33.87 104.052 34.15C103.972 34.43 103.842 34.57 103.642 34.57Z" fill="white"/>
<path d="M103.643 34.5701C103.453 34.5701 103.313 34.4301 103.243 34.1501C103.163 33.8701 103.123 33.5001 103.123 33.0301C103.123 32.5801 103.163 32.2201 103.243 31.9601C103.323 31.7001 103.453 31.5701 103.643 31.5701V34.5701ZM103.643 34.5701V31.5801H108.163V34.5701H103.643ZM108.163 34.5701V31.5801C108.353 31.5801 108.493 31.7101 108.573 31.9801C108.653 32.2501 108.693 32.6101 108.693 33.0601C108.693 33.5101 108.653 33.8701 108.573 34.1501C108.493 34.4301 108.353 34.5701 108.163 34.5701Z" fill="white"/>
<path d="M108.163 34.5701C107.973 34.5701 107.833 34.4301 107.753 34.1501C107.673 33.8701 107.633 33.5001 107.633 33.0301C107.633 32.5801 107.673 32.2201 107.753 31.9601C107.833 31.7001 107.963 31.5701 108.163 31.5701V34.5701ZM108.163 34.5701V31.5801H112.683V34.5701H108.163ZM112.683 34.5701V31.5801C112.873 31.5801 113.013 31.7101 113.083 31.9801C113.163 32.2501 113.203 32.6101 113.203 33.0601C113.203 33.5101 113.163 33.8701 113.083 34.1501C113.013 34.4301 112.873 34.5701 112.683 34.5701Z" fill="white"/>
<path d="M112.682 34.57C112.492 34.57 112.352 34.43 112.282 34.15C112.202 33.87 112.162 33.5 112.162 33.03C112.162 32.58 112.202 32.22 112.282 31.96C112.362 31.7 112.492 31.57 112.682 31.57V34.57ZM116.342 22.04H118.982V34.57H112.692V31.58H116.352V22.04H116.342ZM114.802 40.92C114.352 40.92 113.972 40.76 113.662 40.45C113.352 40.14 113.202 39.76 113.202 39.33C113.202 38.86 113.352 38.48 113.662 38.19C113.972 37.9 114.342 37.75 114.802 37.75C115.252 37.75 115.632 37.9 115.942 38.19C116.252 38.48 116.402 38.87 116.402 39.33C116.402 39.76 116.252 40.14 115.942 40.45C115.632 40.76 115.252 40.92 114.802 40.92ZM118.512 40.92C118.062 40.92 117.682 40.76 117.372 40.45C117.062 40.14 116.912 39.76 116.912 39.33C116.912 38.86 117.062 38.48 117.372 38.19C117.682 37.9 118.052 37.75 118.512 37.75C118.962 37.75 119.342 37.9 119.652 38.19C119.962 38.48 120.112 38.87 120.112 39.33C120.112 39.76 119.962 40.14 119.652 40.45C119.342 40.76 118.962 40.92 118.512 40.92Z" fill="white"/>
<path d="M42.123 46.8499H44.833L48.693 53.5499L52.453 46.8499H55.183L48.873 58.2499H48.493L42.123 46.8499ZM47.363 54.8899H50.0331V60.8499H47.363V54.8899Z" fill="white"/>
<path d="M60.9827 46.8499H63.7327L69.8227 60.8499H66.9527L62.2727 49.5499L57.6127 60.8499H54.8027L60.9827 46.8499ZM58.0327 55.6099H66.4127V57.7899H58.0327V55.6099Z" fill="white"/>
<path d="M80.0321 50.3099C79.5321 49.9999 79.0321 49.7499 78.5121 49.5499C77.9921 49.3499 77.5121 49.2099 77.0521 49.1199C76.5921 49.0299 76.1821 48.9899 75.8021 48.9899C75.1721 48.9899 74.6621 49.1099 74.2821 49.3499C73.9021 49.5899 73.7121 49.9399 73.7121 50.4099C73.7121 50.8399 73.8521 51.1799 74.1221 51.4499C74.3921 51.7199 74.7621 51.9399 75.2021 52.1099C75.6521 52.2799 76.1421 52.4499 76.6821 52.6099C77.2221 52.7699 77.7521 52.9499 78.2921 53.1399C78.8321 53.3299 79.3221 53.5799 79.7721 53.8899C80.2221 54.1999 80.5821 54.5899 80.8421 55.0699C81.1121 55.5499 81.2421 56.1499 81.2421 56.8699C81.2421 57.7399 81.0121 58.4799 80.5421 59.0899C80.0721 59.6999 79.4321 60.1799 78.6221 60.5099C77.8121 60.8399 76.8921 61.0099 75.8621 61.0099C75.1121 61.0099 74.3821 60.9099 73.6621 60.7199C72.9421 60.5299 72.2721 60.2599 71.6321 59.9299C70.9921 59.5999 70.4221 59.2099 69.9121 58.7699L71.0421 56.5899C71.5221 57.0299 72.0421 57.4099 72.6121 57.7199C73.1821 58.0299 73.7421 58.2699 74.3121 58.4399C74.8821 58.6099 75.4121 58.6899 75.9121 58.6899C76.6721 58.6899 77.2721 58.5399 77.6921 58.2499C78.1121 57.9599 78.3221 57.5399 78.3221 57.0099C78.3221 56.5699 78.1821 56.2199 77.9121 55.9499C77.6421 55.6799 77.2821 55.4599 76.8421 55.2799C76.4021 55.0999 75.9121 54.9399 75.3621 54.7999C74.8221 54.6599 74.2821 54.4899 73.7421 54.2999C73.2021 54.1099 72.7121 53.8599 72.2621 53.5599C71.8121 53.2599 71.4521 52.8799 71.1821 52.4099C70.9121 51.9399 70.7721 51.3499 70.7721 50.6299C70.7721 49.8199 70.9921 49.1099 71.4321 48.5199C71.8721 47.9299 72.4921 47.4699 73.2721 47.1399C74.0521 46.8099 74.9721 46.6499 76.0321 46.6499C76.9721 46.6499 77.8821 46.7799 78.7721 47.0499C79.6621 47.3199 80.4421 47.6699 81.1121 48.1099L80.0321 50.3099Z" fill="white"/>
<path d="M83.4434 46.8499H93.7534V49.0899H86.1334V52.7099H92.9634V54.9299H86.1334V58.6099H93.9934V60.8499H83.4434V46.8499Z" fill="white"/>
<path d="M96.3633 46.8499H106.673V49.0899H99.0633V52.7099H105.893V54.9299H99.0633V58.6099H106.923V60.8499H96.3733V46.8499H96.3633Z" fill="white"/>
<path d="M115.153 46.8499C116.973 46.8499 118.383 47.2699 119.373 48.1099C120.363 48.9499 120.863 50.1299 120.863 51.6499C120.863 53.2399 120.363 54.4699 119.373 55.3499C118.383 56.2299 116.973 56.6699 115.153 56.6699H111.983V60.8499H109.293V46.8499H115.153ZM115.153 54.4499C116.153 54.4499 116.933 54.2199 117.483 53.7699C118.033 53.3199 118.303 52.6299 118.303 51.7099C118.303 50.8299 118.023 50.1699 117.483 49.7399C116.943 49.3099 116.153 49.0899 115.153 49.0899H111.983V54.4499H115.153ZM115.053 55.6499H117.683L121.143 60.8499H118.093L115.053 55.6499Z" fill="white"/>
</svg>