<?xml version="1.0" standalone="no"?>
<!DOCTYPE svg PUBLIC "-//W3C//DTD SVG 20010904//EN"
 "http://www.w3.org/TR/2001/REC-SVG-20010904/DTD/svg10.dtd">
<svg version="1.0" xmlns="http://www.w3.org/2000/svg"
 width="2000.000000pt" height="2000.000000pt" viewBox="0 0 2000.000000 2000.000000"
 preserveAspectRatio="xMidYMid meet">
<metadata>
Created by potrace 1.14, written by Peter Selinger 2001-2017
</metadata>
<g transform="translate(0.000000,2000.000000) scale(0.100000,-0.100000)"
fill="#000000" stroke="none">
<path d="M10605 19969 c-4 -5 -2 -15 3 -22 14 -17 88 -250 107 -337 2 -8 4
-15 5 -15 1 0 3 -7 5 -15 2 -8 16 -62 30 -120 15 -58 29 -115 30 -127 2 -11 6
-32 11 -45 4 -12 8 -32 10 -43 2 -11 6 -31 9 -45 4 -14 8 -32 9 -40 2 -8 8
-40 14 -70 6 -30 14 -71 17 -90 3 -19 8 -42 10 -50 3 -8 7 -31 10 -50 2 -19 6
-46 9 -60 5 -27 22 -143 30 -200 3 -19 7 -51 10 -70 11 -74 22 -167 31 -250 3
-25 7 -63 9 -85 2 -22 7 -71 10 -110 4 -38 9 -96 12 -127 31 -331 36 -1199 9
-1478 -2 -19 -7 -80 -10 -135 -4 -55 -8 -116 -10 -135 -2 -19 -6 -71 -9 -115
-4 -44 -9 -91 -11 -105 -2 -14 -7 -54 -10 -90 -3 -36 -8 -78 -10 -95 -3 -16
-7 -52 -10 -79 -3 -27 -7 -59 -10 -70 -2 -12 -7 -46 -10 -76 -3 -30 -7 -66
-10 -80 -4 -28 -12 -81 -20 -137 -3 -21 -10 -60 -15 -88 -8 -46 -16 -87 -24
-140 -2 -11 -7 -40 -11 -65 -5 -25 -9 -49 -10 -55 -1 -5 -3 -12 -4 -15 -2 -3
-4 -14 -5 -25 -3 -19 -28 -165 -31 -175 -1 -5 -13 -63 -21 -100 -1 -8 -10 -46
-19 -85 -9 -38 -19 -79 -21 -90 -21 -106 -21 -104 -23 -107 -2 -2 -4 -14 -7
-26 -2 -13 -18 -78 -35 -145 -31 -121 -35 -139 -43 -176 -9 -41 -115 -421
-123 -441 -8 -20 -12 -32 -15 -50 -2 -8 -7 -21 -11 -27 -5 -7 -6 -13 -2 -13 3
0 1 -8 -4 -19 -6 -10 -13 -33 -16 -52 -3 -18 -10 -38 -14 -44 -6 -8 -28 -78
-37 -115 0 -3 -3 -12 -7 -20 -3 -8 -20 -58 -37 -110 -60 -183 -179 -514 -237
-660 -14 -35 -26 -69 -27 -75 -2 -5 -10 -27 -19 -49 -9 -21 -17 -44 -17 -50 0
-7 -4 -16 -8 -22 -7 -7 -54 -124 -58 -144 -2 -11 -30 -86 -107 -285 -30 -77
-80 -207 -111 -290 -73 -192 -86 -226 -97 -250 -5 -11 -15 -38 -22 -60 -18
-51 -97 -262 -110 -295 -5 -14 -11 -29 -13 -35 -2 -10 -80 -218 -91 -245 -3
-8 -7 -18 -7 -22 -1 -3 -4 -10 -8 -14 -5 -4 -8 -18 -8 -30 0 -13 -5 -26 -10
-29 -6 -4 -8 -11 -5 -16 4 -5 1 -9 -4 -9 -6 0 -10 -3 -10 -7 1 -5 0 -10 -1
-13 -1 -3 -3 -12 -5 -20 -2 -8 -22 -64 -45 -125 -22 -60 -42 -117 -44 -125 -2
-8 -8 -28 -15 -45 -6 -16 -15 -41 -20 -55 -5 -14 -12 -34 -17 -45 -4 -11 -8
-24 -10 -30 -1 -5 -14 -44 -29 -85 -14 -41 -37 -111 -51 -155 -15 -44 -31 -86
-36 -92 -6 -7 -8 -13 -4 -13 3 0 -5 -30 -19 -67 -19 -54 -115 -350 -120 -373
-8 -32 -19 -67 -24 -75 -3 -5 -6 -14 -7 -20 -1 -5 -16 -57 -33 -115 -40 -133
-142 -490 -146 -510 -2 -8 -11 -44 -20 -80 -17 -67 -22 -87 -31 -129 -3 -14
-7 -28 -10 -33 -3 -5 -8 -21 -10 -36 -3 -15 -9 -44 -15 -65 -6 -21 -12 -50
-14 -65 -2 -15 -11 -54 -19 -88 -20 -81 -38 -165 -51 -234 -3 -14 -7 -36 -10
-50 -6 -26 -10 -49 -21 -110 -6 -35 -9 -52 -18 -100 -17 -98 -25 -148 -32
-200 -3 -25 -7 -56 -10 -70 -5 -29 -10 -64 -19 -140 -12 -101 -15 -125 -20
-180 -2 -30 -6 -68 -8 -85 -3 -16 -8 -82 -12 -145 -19 -296 -20 -681 0 -895 4
-44 8 -100 10 -125 5 -63 14 -159 19 -195 3 -16 8 -52 11 -80 4 -27 9 -61 11
-75 2 -14 7 -41 9 -60 3 -19 10 -55 15 -80 5 -25 12 -61 14 -80 3 -19 10 -50
15 -68 5 -18 10 -35 10 -37 0 -4 4 -27 16 -95 10 -54 110 -422 124 -455 4 -11
21 -60 36 -110 52 -169 156 -440 257 -670 70 -158 79 -176 173 -365 91 -182
112 -224 227 -429 32 -58 58 -108 58 -113 0 -4 4 -8 9 -8 5 0 11 -8 14 -17 4
-10 20 -40 37 -68 17 -27 33 -57 37 -65 4 -8 9 -17 12 -20 11 -10 71 -111 71
-121 0 -5 4 -9 9 -9 5 0 11 -8 14 -17 6 -18 37 -73 47 -83 10 -10 50 -69 50
-74 0 -10 283 -431 291 -434 5 -2 9 -10 9 -18 0 -8 5 -14 10 -14 6 0 10 -6 10
-13 0 -8 9 -22 20 -32 11 -10 20 -24 20 -31 0 -7 4 -14 8 -16 5 -1 23 -25 42
-53 19 -27 38 -54 42 -60 5 -5 30 -41 58 -80 27 -38 53 -74 57 -80 5 -5 24
-32 43 -60 19 -27 40 -56 47 -65 31 -39 70 -90 88 -116 11 -16 28 -36 38 -46
9 -10 17 -22 17 -26 0 -5 8 -17 18 -28 9 -11 33 -40 52 -64 19 -25 38 -46 42
-48 4 -2 8 -8 8 -13 0 -7 111 -154 155 -206 5 -6 20 -24 32 -40 26 -34 223
-283 238 -300 5 -7 15 -18 20 -25 48 -60 145 -180 169 -209 17 -20 38 -44 46
-55 45 -57 203 -244 206 -244 7 0 -71 155 -81 162 -5 4 -7 8 -3 8 4 0 -11 37
-34 82 -75 153 -128 270 -128 284 0 8 -4 14 -10 14 -5 0 -10 6 -10 13 0 6 -17
53 -38 102 -40 92 -54 126 -57 135 -2 6 -20 51 -38 95 -6 17 -12 32 -13 35 0
3 -6 19 -13 35 -7 17 -14 35 -15 40 -2 11 -23 70 -37 100 -5 11 -29 79 -53
150 -24 72 -46 137 -49 145 -3 8 -15 49 -27 90 -12 41 -25 86 -30 100 -6 14
-16 51 -25 83 -8 31 -22 83 -31 115 -27 100 -65 246 -70 272 -3 14 -14 61 -24
105 -23 96 -69 316 -76 365 -2 19 -7 46 -10 60 -11 57 -45 278 -49 320 -3 25
-7 61 -10 80 -13 88 -18 137 -30 275 -3 39 -7 88 -10 110 -28 283 -23 898 9
1210 16 153 22 201 31 270 4 36 21 143 31 205 2 14 6 36 9 50 3 14 8 39 10 55
5 33 7 39 30 145 9 41 18 85 21 97 3 18 67 267 78 308 1 6 8 30 15 55 7 25 35
117 63 205 29 88 53 165 54 170 1 6 17 48 34 95 17 47 43 119 57 160 14 41 30
81 36 88 5 6 6 12 2 12 -4 0 -2 7 5 15 7 8 10 15 6 15 -4 0 0 13 9 30 8 16 15
32 15 35 0 3 7 21 15 41 8 20 15 41 15 46 0 5 10 28 21 51 12 23 21 43 20 45
-2 4 3 21 16 52 6 14 25 61 42 105 17 44 36 89 41 100 5 11 21 49 35 85 15 36
35 84 46 107 10 24 19 45 19 48 0 4 25 61 71 162 10 24 19 45 19 47 0 3 18 44
41 93 23 48 42 93 43 98 1 6 12 29 24 52 12 23 22 49 22 58 0 8 5 15 10 15 6
0 10 5 10 11 0 11 8 29 66 155 18 39 46 100 62 135 16 35 45 98 65 139 19 41
46 100 60 130 14 30 47 100 73 155 26 55 48 103 48 107 1 4 7 13 14 20 6 6 12
17 12 24 0 7 11 34 24 61 24 47 52 107 135 286 23 49 41 92 41 98 0 5 4 9 9 9
5 0 13 14 16 32 4 17 14 38 21 46 8 7 12 18 9 23 -4 5 -1 9 4 9 6 0 11 6 11
13 0 6 20 54 45 105 25 52 45 100 45 107 0 7 3 15 8 17 7 3 31 55 85 183 12
28 25 52 29 53 4 2 8 10 8 18 0 7 14 44 31 81 91 200 253 592 336 813 19 52
40 101 45 108 6 6 8 12 5 12 -4 0 5 30 19 68 50 132 170 490 190 565 1 4 3 10
4 15 2 4 4 12 5 17 1 6 5 17 8 25 10 27 55 184 62 220 4 19 10 40 13 45 4 6 8
17 9 27 1 9 14 60 28 113 14 54 27 107 29 119 2 11 9 41 15 66 5 25 12 56 15
70 2 14 10 48 15 75 6 28 13 64 16 80 2 17 8 44 12 60 4 17 6 34 5 39 -2 4 2
14 8 20 5 7 8 15 5 17 -2 3 4 54 15 114 22 130 29 183 56 430 22 199 29 368
28 685 0 358 -10 534 -40 750 -3 25 -6 52 -6 60 0 8 -3 38 -8 65 -5 28 -11 68
-14 90 -2 22 -7 51 -10 65 -2 14 -10 59 -16 100 -14 83 -12 76 -34 180 -8 41
-17 86 -20 100 -2 14 -7 32 -10 40 -3 8 -8 29 -11 45 -2 17 -9 48 -14 70 -6
22 -14 58 -20 80 -13 56 -45 172 -81 295 -17 58 -33 112 -35 120 -2 8 -10 34
-19 58 -8 23 -13 42 -9 42 3 0 1 6 -4 13 -6 6 -20 43 -32 81 -27 83 -116 328
-137 373 -8 17 -14 33 -14 36 0 2 -8 22 -17 43 -9 22 -17 41 -18 44 -1 3 -9
22 -18 44 -9 21 -17 40 -17 42 0 2 -14 34 -31 71 -28 62 -49 110 -54 123 -8
22 -50 111 -121 257 -46 95 -84 177 -84 182 0 5 -3 11 -7 13 -5 2 -30 48 -58
103 -27 55 -52 102 -55 105 -3 3 -16 25 -29 50 -49 94 -104 192 -183 323 -32
55 -58 103 -58 107 0 5 -3 10 -7 12 -10 4 -42 57 -50 81 -3 9 -9 17 -14 17 -5
0 -9 7 -9 15 0 8 -4 15 -10 15 -5 0 -10 5 -10 10 0 6 -16 34 -35 63 -19 28
-35 57 -35 63 0 7 -7 14 -15 18 -8 3 -15 10 -15 16 0 6 -58 97 -128 203 -173
259 -196 291 -204 295 -5 2 -8 10 -8 18 0 8 -3 14 -8 14 -4 0 -18 18 -32 40
-14 22 -28 40 -32 40 -5 0 -8 5 -8 11 0 5 -27 46 -60 90 -33 44 -60 84 -60 88
0 5 -4 11 -8 13 -4 2 -41 48 -82 103 -88 117 -77 103 -140 185 -27 36 -53 70
-57 75 -71 92 -118 151 -125 153 -4 2 -8 8 -8 13 0 8 -17 30 -65 83 -5 6 -23
28 -38 49 -16 20 -38 48 -50 62 -12 13 -33 38 -47 56 -14 18 -30 37 -35 43 -6
6 -41 48 -77 93 -37 46 -70 78 -73 72z"/>
<path d="M7736 18392 c11 -7 81 -242 85 -287 0 -2 5 -19 10 -37 5 -18 12 -49
15 -68 3 -19 10 -60 16 -90 6 -30 12 -71 14 -90 1 -19 3 -35 4 -35 3 0 7 -29
14 -90 3 -33 9 -76 11 -95 6 -43 16 -174 20 -255 7 -120 3 -620 -5 -620 0 0
-3 -31 -5 -70 -2 -38 -6 -95 -10 -125 -10 -96 -15 -134 -20 -170 -3 -19 -7
-51 -9 -70 -6 -44 -35 -227 -42 -260 -3 -14 -7 -38 -10 -55 -8 -48 -64 -296
-76 -340 -11 -41 -15 -56 -21 -90 -3 -11 -7 -27 -10 -35 -8 -22 -61 -206 -71
-247 -2 -10 -23 -72 -46 -138 -23 -66 -43 -124 -44 -130 -2 -5 -6 -17 -9 -25
-4 -8 -15 -40 -26 -70 -10 -30 -26 -71 -35 -91 -8 -20 -12 -39 -9 -43 4 -3 1
-6 -5 -6 -7 0 -12 -9 -12 -20 0 -11 -4 -20 -10 -20 -5 0 -9 -3 -8 -7 4 -17
-14 -73 -23 -73 -6 0 -8 -4 -4 -9 3 -5 1 -12 -5 -16 -5 -3 -10 -15 -10 -26 0
-10 -4 -27 -10 -37 -5 -9 -26 -57 -45 -105 -20 -48 -41 -100 -47 -115 -6 -15
-12 -31 -14 -37 -4 -17 -104 -268 -119 -302 -8 -17 -15 -36 -15 -42 0 -6 -11
-34 -24 -63 -22 -49 -39 -95 -41 -108 0 -3 -8 -24 -17 -45 -34 -79 -238 -661
-252 -720 -12 -48 -20 -72 -29 -82 -5 -7 -7 -13 -4 -13 3 0 -3 -25 -13 -55
-10 -30 -17 -55 -15 -55 3 0 0 -12 -6 -27 -15 -41 -89 -328 -91 -358 -1 -14
-6 -25 -11 -25 -4 0 -6 -4 -3 -8 2 -4 -4 -50 -14 -102 -19 -98 -27 -145 -35
-215 -3 -22 -7 -56 -10 -75 -15 -107 -20 -208 -19 -415 0 -205 4 -276 19 -366
3 -14 7 -43 10 -65 8 -63 36 -207 45 -234 5 -14 12 -37 15 -52 12 -66 17 -82
26 -100 5 -10 7 -18 3 -18 -3 0 -1 -7 6 -15 7 -8 9 -15 6 -15 -4 0 -2 -9 4
-21 6 -11 13 -28 15 -37 7 -31 56 -166 76 -206 10 -22 19 -43 19 -48 0 -9 134
-294 149 -318 6 -8 19 -33 30 -55 11 -22 57 -101 101 -175 44 -74 80 -138 80
-142 0 -4 5 -8 10 -8 6 0 10 -4 10 -10 0 -5 25 -46 55 -90 30 -44 55 -85 55
-90 0 -6 4 -10 8 -10 4 0 17 -14 27 -31 38 -59 128 -190 151 -218 7 -9 43 -56
80 -106 36 -49 70 -91 75 -93 5 -2 9 -8 9 -13 0 -5 21 -35 46 -67 25 -31 56
-70 67 -85 12 -15 27 -33 32 -40 6 -7 58 -70 115 -141 58 -71 113 -138 123
-150 24 -27 11 0 -19 41 -13 17 -24 36 -24 42 0 6 -3 11 -8 11 -4 0 -13 15
-21 32 -8 18 -17 35 -21 38 -17 12 -135 267 -132 283 1 4 -2 7 -8 7 -5 0 -10
8 -10 18 0 10 -3 22 -7 26 -4 3 -8 12 -9 19 -2 7 -17 50 -33 97 -32 92 -54
168 -78 270 -8 36 -16 70 -17 75 -15 58 -45 256 -52 345 -3 36 -7 85 -9 110
-9 107 -3 460 9 550 4 25 9 68 11 95 2 28 7 66 10 85 3 19 8 53 11 75 2 22 11
72 19 110 8 39 16 81 19 95 2 14 14 66 26 115 12 50 24 101 26 114 3 13 9 31
13 40 5 9 10 21 10 26 1 6 6 28 12 50 6 22 10 40 9 40 -2 0 122 359 135 390 8
17 26 62 41 100 14 39 35 90 46 115 48 108 58 134 57 146 0 4 3 10 8 13 5 3
19 30 31 59 29 67 126 274 238 507 26 55 47 103 46 108 -1 4 3 7 8 7 6 0 10 4
10 10 0 5 30 72 66 147 36 76 73 154 82 173 9 19 20 36 25 38 4 2 7 9 7 16 0
7 11 34 24 62 13 27 30 65 39 84 8 19 29 65 46 102 17 37 58 133 92 215 33 81
67 162 75 180 8 17 14 36 14 42 0 6 9 30 19 54 20 43 93 258 91 267 -1 3 4 19
10 35 7 17 13 37 16 45 2 8 15 60 30 115 14 55 27 107 29 115 2 8 12 60 24
115 11 55 23 118 26 140 3 23 8 52 11 65 2 14 6 45 9 70 2 25 7 77 11 115 15
140 9 565 -10 675 -3 14 -7 45 -10 70 -14 104 -51 285 -82 401 -14 52 -27 101
-29 109 -13 54 -88 263 -138 385 -79 194 -220 475 -327 651 -22 36 -40 68 -40
69 0 2 -22 38 -50 79 -27 42 -50 79 -50 84 0 5 -9 17 -20 27 -11 10 -20 22
-20 27 0 5 -5 14 -10 21 -6 7 -37 50 -70 97 -93 135 -134 192 -145 204 -6 6
-21 28 -35 48 -14 21 -28 38 -32 38 -5 0 -8 7 -8 15 0 8 -4 15 -8 15 -5 0 -24
21 -43 48 -33 47 -47 63 -83 105 -10 12 -30 38 -45 57 -14 19 -33 41 -41 50
-8 9 -31 35 -50 58 -19 23 -39 42 -45 42 -6 0 -6 -3 1 -8z"/>
</g>
</svg>
