<svg width="113" height="126" viewBox="0 0 113 126" fill="none" xmlns="http://www.w3.org/2000/svg">
<path opacity="0.2" d="M58.8113 70.4012C55.3864 68.7003 52.1865 66.5408 49.3258 64.0001C46.5146 61.4379 44.0406 58.5674 41.9752 55.4713C39.9074 52.4712 38.1973 49.2976 36.882 46.019C35.5518 42.7458 34.8138 39.3599 34.7016 36.0159C34.6525 34.3307 34.8637 32.6837 35.3283 31.1259C35.7877 29.4983 36.6399 28.0401 37.8244 26.8548C39.1644 25.5481 41.0001 24.7716 43.0391 24.649C45.1366 24.5757 47.3012 25.0746 49.282 26.0879C50.2144 26.5423 51.1166 27.0634 51.9797 27.6458C52.7898 28.2248 53.5732 28.8393 54.3266 29.487C55.0526 30.1085 55.7416 30.7685 56.3891 31.4628L57.4224 32.5118L58.3185 33.5567C60.5544 36.2486 62.5371 39.1031 64.2385 42.0797C65.9454 44.9805 67.2397 48.0368 68.0829 51.1575C68.8799 54.1176 69.2301 57.109 69.1226 60.0383L69.0991 61.0977L68.9712 62.1307C68.8929 62.8092 68.8126 63.5162 68.7173 64.1682C68.4936 65.4824 68.1953 66.7746 67.8238 68.0395C67.6043 68.771 67.3421 69.4883 67.0798 70.2055C67.8514 70.4335 68.5653 70.5922 69.3935 70.8141C72.4593 71.5197 75.5519 71.8423 78.588 71.7734C81.488 71.6717 84.2892 71.1461 86.8948 70.2146C91.7906 68.2817 95.9899 65.2498 99.1771 61.3467C102.16 57.6868 104.522 53.5725 106.193 49.1224C107.739 45.0541 108.913 40.8247 109.702 36.4753C110.438 32.6756 110.895 28.7958 111.07 24.8617C111.358 19.0996 110.628 13.192 108.909 7.37306C107.592 3.20282 106.327 0.904938 106.589 0.90487C107.024 1.38629 107.38 1.92201 107.642 2.4897C108.505 4.04755 109.248 5.64873 109.865 7.27909C111.987 13.1756 113.025 19.2305 112.93 25.1607C112.911 29.2126 112.591 33.2169 111.973 37.145C111.308 41.6511 110.24 46.0431 108.781 50.277C107.165 54.9937 104.808 59.3693 101.78 63.2734C98.4475 67.5881 93.9814 70.9644 88.729 73.1399C85.8401 74.2442 82.7198 74.8904 79.4788 75.0554C76.0871 75.1914 72.6224 74.8769 69.1828 74.1209C67.9964 73.8757 66.816 73.5685 65.6472 73.2009C64.3771 75.8254 62.8396 78.3003 61.0534 80.5958C56.2398 86.6571 50.3904 91.8749 43.694 96.0806C38.8695 99.1637 33.7293 101.834 28.3235 104.065C22.3612 106.584 16.0307 108.442 9.44186 109.608L7.36015 109.889L9.37061 110.635C11.5173 111.488 13.5587 112.418 15.4956 113.322C18.9053 114.964 22.2142 116.834 25.3934 118.915C30.8327 122.479 33.7147 125.253 33.4404 125.603C33.1662 125.954 29.7744 123.952 24.2946 121.062C21.5253 119.635 18.235 117.971 14.5034 116.364C12.6291 115.548 10.6604 114.742 8.6141 113.972C7.57805 113.593 6.53006 113.207 5.46816 112.84C4.93125 112.653 4.44703 112.516 3.66948 112.195C2.64481 111.797 1.73789 111.11 1.08699 110.237C0.749119 109.764 0.508703 109.244 0.380655 108.709C0.287034 108.29 0.251115 107.869 0.273858 107.457C0.324354 106.851 0.444819 106.262 0.633205 105.7C0.902335 104.793 1.19534 103.903 1.4625 103.025C2.02763 101.275 2.59378 99.5996 3.14207 98.0022C4.28636 94.8398 5.42681 92.0931 6.47791 89.7335C8.54436 85.1691 10.2366 82.4854 10.7626 82.74C11.2886 82.9945 10.5957 86.1364 9.23618 91.0489L6.76039 99.621C6.29033 101.232 5.80469 102.917 5.30352 104.676C5.05525 105.552 4.79309 106.449 4.53091 107.345C4.52234 107.369 4.50811 107.39 4.48918 107.407C5.24467 107.146 6.3302 106.811 7.90882 106.395C14.0276 104.717 19.9624 102.641 25.6748 100.18C30.8025 97.9025 35.6938 95.2512 40.3106 92.247C46.6345 88.1989 52.1714 83.2211 56.7526 77.4654C58.2372 75.5391 59.5416 73.4829 60.6538 71.3155C60.0234 71.0345 59.393 70.7535 58.7765 70.4521L58.8113 70.4012ZM62.886 65.8934C63.2331 64.7795 63.5145 63.6403 63.729 62.4805C63.8253 61.9039 63.8857 61.3028 63.965 60.6997L64.0711 59.8012L64.0917 58.8742C64.2149 56.362 63.9298 53.7906 63.2463 51.2463C62.5375 48.5509 61.4374 45.9088 59.9789 43.399C58.4807 40.7141 56.7232 38.1382 54.7322 35.7092L53.9703 34.8007L53.1668 33.9533C52.6399 33.3914 52.0849 32.8528 51.504 32.3401C50.9411 31.8065 50.3733 31.4337 49.7279 30.9184C49.1373 30.5131 48.5186 30.1506 47.8784 29.835C46.8182 29.2003 45.6148 28.8871 44.4558 28.9442C43.2967 29.0012 42.247 29.4253 41.4701 30.1504C39.8573 31.9859 39.0606 34.394 39.2164 36.9621C39.285 39.8173 39.8834 42.7128 40.9848 45.5188C42.1383 48.4751 43.6472 51.3408 45.4792 54.0544C47.2581 56.8065 49.4051 59.3634 51.8573 61.6502C54.3466 63.8875 57.1365 65.7922 60.1266 67.2958C60.772 67.6318 61.4312 67.9475 62.0855 68.2448C62.3894 67.4664 62.6745 66.6901 62.9516 65.8485" fill="#5B1727"/>
</svg>
