<svg width="20" height="14" viewBox="0 0 20 14" fill="none" xmlns="http://www.w3.org/2000/svg">
<path d="M19.1431 3.42857C19.1431 1.53714 17.606 0 15.7146 0H4.28599C2.39456 0 0.857422 1.53714 0.857422 3.42857V10.5714C0.857422 12.4629 2.39456 14 4.28599 14H15.7146C17.606 14 19.1431 12.4629 19.1431 10.5714V3.42857ZM16.8574 10.5714C16.8574 10.8745 16.737 11.1652 16.5227 11.3796C16.3084 11.5939 16.0177 11.7143 15.7146 11.7143H4.28599C3.65742 11.7143 3.14314 11.2 3.14314 10.5714V3.89714L8.38314 9.14286C8.81742 9.57143 9.38885 9.81143 10.0003 9.81143C10.6117 9.81143 11.1889 9.57143 11.6174 9.14286L16.8574 3.89714V10.5714Z" fill="white"/>
</svg>
