<svg width="9" height="16" viewBox="0 0 9 16" fill="none" xmlns="http://www.w3.org/2000/svg">
<path d="M0.258065 8.52161H2.01192V15.7419C2.01192 15.8104 2.03911 15.876 2.08751 15.9244C2.1359 15.9728 2.20154 16 2.26999 16H5.24372C5.31216 16 5.3778 15.9728 5.4262 15.9244C5.47459 15.876 5.50178 15.8104 5.50178 15.7419V8.55562H7.51799C7.58132 8.55562 7.64245 8.53232 7.68972 8.49017C7.73699 8.44802 7.76711 8.38995 7.77435 8.32703L8.08057 5.66886C8.08473 5.63273 8.0812 5.59612 8.07022 5.56144C8.05924 5.52676 8.04105 5.49479 8.01685 5.46764C7.99265 5.44048 7.96298 5.41875 7.92979 5.40387C7.8966 5.38898 7.86063 5.38128 7.82426 5.38128H5.50188V3.71501C5.50188 3.21271 5.77234 2.958 6.30581 2.958H7.82426C7.8927 2.958 7.95834 2.93081 8.00674 2.88241C8.05513 2.83402 8.08232 2.76838 8.08232 2.69993V0.259986C8.08232 0.191543 8.05513 0.125904 8.00674 0.0775072C7.95834 0.0291107 7.8927 0.00192185 7.82426 0.00192185H5.73161C5.69968 0.000538792 5.66773 -9.79415e-05 5.63577 1.21775e-05C5.27267 1.21775e-05 4.01058 0.0712895 3.01363 0.988451C1.90901 2.00481 2.06255 3.22174 2.09925 3.43273V5.38122H0.258065C0.189622 5.38122 0.123982 5.40841 0.0755851 5.45681C0.0271887 5.50521 5.16197e-09 5.57085 5.16197e-09 5.63929V8.26349C-6.77361e-06 8.29739 0.00666299 8.33095 0.0196289 8.36227C0.0325948 8.39358 0.0516029 8.42204 0.075567 8.44601C0.0995312 8.46998 0.127982 8.48899 0.159295 8.50196C0.190609 8.51493 0.224171 8.52161 0.258065 8.52161Z" fill="#3D2427"/>
</svg>
