<svg width="16" height="16" viewBox="0 0 16 16" fill="none" xmlns="http://www.w3.org/2000/svg">
<path fill-rule="evenodd" clip-rule="evenodd" d="M12 0H4C1.80021 0 0 1.79941 0 4V12C0 14.1998 1.80021 16 4 16H12C14.1998 16 16 14.1998 16 12V4C16 1.79941 14.1998 0 12 0ZM7.99998 11.3335C6.15878 11.3335 4.66657 9.84065 4.66657 8.00025C4.66657 6.15905 6.15878 4.66686 7.99998 4.66686C9.84038 4.66686 11.3334 6.15905 11.3334 8.00025C11.3334 9.84065 9.84038 11.3335 7.99998 11.3335ZM11.3334 3.66686C11.3334 4.21905 11.7806 4.66686 12.3334 4.66686C12.8862 4.66686 13.3334 4.21905 13.3334 3.66686C13.3334 3.11465 12.8862 2.66686 12.3334 2.66686C11.7806 2.66686 11.3334 3.11465 11.3334 3.66686Z" fill="#3D2427"/>
</svg>