<svg width="16" height="16" viewBox="0 0 16 16" fill="none" xmlns="http://www.w3.org/2000/svg">
<path d="M3.72439 5.12975H0.512361C0.443918 5.12975 0.378279 5.15694 0.329882 5.20534C0.281486 5.25374 0.254297 5.31938 0.254297 5.38782V15.7067C0.254297 15.7751 0.281486 15.8408 0.329882 15.8892C0.378279 15.9376 0.443918 15.9647 0.512361 15.9647H3.72439C3.79283 15.9647 3.85847 15.9376 3.90687 15.8892C3.95526 15.8408 3.98245 15.7751 3.98245 15.7067V5.38782C3.98245 5.31938 3.95526 5.25374 3.90687 5.20534C3.85847 5.15694 3.79283 5.12975 3.72439 5.12975ZM2.11954 0C0.950813 0 0 0.949781 0 2.11721C0 3.28516 0.950813 4.2353 2.11954 4.2353C3.28733 4.2353 4.23737 3.28511 4.23737 2.11721C4.23742 0.949781 3.28733 0 2.11954 0ZM11.8944 4.87329C10.6043 4.87329 9.65068 5.42787 9.07226 6.05801V5.38782C9.07226 5.31938 9.04507 5.25374 8.99667 5.20534C8.94828 5.15694 8.88264 5.12975 8.81419 5.12975H5.73812C5.66967 5.12975 5.60403 5.15694 5.55564 5.20534C5.50724 5.25374 5.48005 5.31938 5.48005 5.38782V15.7067C5.48005 15.7751 5.50724 15.8408 5.55564 15.8892C5.60403 15.9376 5.66967 15.9647 5.73812 15.9647H8.94312C9.01157 15.9647 9.07721 15.9376 9.1256 15.8892C9.174 15.8408 9.20119 15.7751 9.20119 15.7067V10.6012C9.20119 8.88083 9.66849 8.21058 10.8678 8.21058C12.1739 8.21058 12.2777 9.28506 12.2777 10.6898V15.7067C12.2777 15.7752 12.3049 15.8408 12.3533 15.8892C12.4017 15.9376 12.4673 15.9648 12.5357 15.9648H15.7419C15.8104 15.9648 15.876 15.9376 15.9244 15.8892C15.9728 15.8408 16 15.7752 16 15.7067V10.0467C16 7.48846 15.5122 4.87329 11.8944 4.87329Z" fill="#3D2427"/>
</svg>
