<svg width="16" height="20" viewBox="0 0 16 20" fill="none" xmlns="http://www.w3.org/2000/svg">
<path d="M7.40599 18.9026C7.73171 19.2175 8.25171 19.2284 8.58885 18.9026C8.85742 18.6455 15.1431 12.5998 15.1431 7.99979C15.1431 4.05693 11.9374 0.856934 8.00028 0.856934C4.05742 0.856934 0.857422 4.05693 0.857422 7.99979C0.857422 12.5998 7.13742 18.6455 7.40599 18.9026ZM4.00028 7.99979C4.00028 5.79408 5.79457 3.99979 8.00028 3.99979C10.206 3.99979 12.0003 5.79408 12.0003 7.99979C12.0003 10.2055 10.206 11.9998 8.00028 11.9998C5.79457 11.9998 4.00028 10.2055 4.00028 7.99979Z" fill="white"/>
</svg>
