<svg width="122" height="94" viewBox="0 0 122 94" fill="none" xmlns="http://www.w3.org/2000/svg">
<path d="M20.5724 63.8102C27.2256 44.5263 43.9419 29.6451 18.8803 0C18.8803 0 24.5265 13.9206 16.7698 34.3695C15.654 37.3128 15.9767 36.4923 16.0496 36.3049L16.0136 36.3996C9.81468 52.3436 6.82027 61.6988 9.84591 71.795C11.734 78.1018 15.9701 84.6992 23.2365 93.3729C23.2706 93.4136 23.0321 92.9158 22.6328 92.0991C21.2652 89.2958 17.1048 79.7429 19.0932 69.0684C19.4443 67.2788 19.9389 65.5204 20.5724 63.8102Z" fill="white"/>
<path d="M23.2402 93.3767C23.3822 93.5556 23.4645 93.6474 23.4645 93.6474C23.3841 93.5594 23.3141 93.4647 23.2402 93.3767Z" fill="white"/>
<path d="M6.02167 39.1914C9.47793 29.5561 17.9946 22.0672 5.48978 7.41406C5.48978 7.41406 8.27031 14.3228 4.24999 24.5439C3.68215 25.9957 3.83453 25.6162 3.87144 25.5159L3.8544 25.5585C-1.36217 38.5043 -2.21866 42.7518 7.21224 53.9079C6.51852 53.0344 2.89192 47.9163 6.02167 39.1914Z" fill="white"/>
<path d="M7.2168 53.9053C7.28872 53.9942 7.32941 54.0397 7.32941 54.0397L7.2168 53.9053Z" fill="white"/>
<path d="M28.5186 63.2542H29.6874C31.4181 64.7142 32.2834 66.1536 32.2834 67.5726C32.2834 68.155 32.1481 68.6676 31.8774 69.1105C31.6149 69.5534 31.2458 69.902 30.7701 70.1563C30.2944 70.4024 29.7366 70.5254 29.0969 70.5254C28.4653 70.5254 27.9076 70.4024 27.4236 70.1563C26.9397 69.902 26.5624 69.5534 26.2917 69.1105C26.0293 68.6676 25.898 68.1591 25.898 67.5849C25.898 66.1659 26.7716 64.7224 28.5186 63.2542ZM29.0107 65.1366C28.5514 65.5549 28.2151 65.9404 28.0019 66.2931C27.7886 66.6458 27.682 66.978 27.682 67.2896C27.682 67.5029 27.7394 67.6874 27.8542 67.8433C27.9691 67.9991 28.129 68.1222 28.3341 68.2124C28.5473 68.2944 28.8016 68.3354 29.0969 68.3354C29.3921 68.3354 29.6423 68.2944 29.8474 68.2124C30.0606 68.1222 30.2247 67.995 30.3395 67.831C30.4543 67.6669 30.5117 67.4783 30.5117 67.265C30.5117 66.9698 30.4051 66.6458 30.1919 66.2931C29.9786 65.9404 29.6505 65.5549 29.2076 65.1366H29.0107ZM30.118 62.0608C29.8638 62.0608 29.6505 61.9788 29.4783 61.8147C29.3142 61.6425 29.2322 61.4292 29.2322 61.1749C29.2322 60.9125 29.3142 60.6992 29.4783 60.5352C29.6505 60.3711 29.8638 60.2891 30.118 60.2891C30.3723 60.2891 30.5815 60.3711 30.7455 60.5352C30.9177 60.6992 31.0039 60.9125 31.0039 61.1749C31.0039 61.4292 30.9177 61.6425 30.7455 61.8147C30.5815 61.9788 30.3723 62.0608 30.118 62.0608ZM28.088 62.0608C27.8337 62.0608 27.6205 61.9788 27.4482 61.8147C27.2842 61.6425 27.2022 61.4292 27.2022 61.1749C27.2022 60.9125 27.2842 60.6992 27.4482 60.5352C27.6205 60.3711 27.8337 60.2891 28.088 60.2891C28.3505 60.2891 28.5637 60.3711 28.7278 60.5352C28.8918 60.6992 28.9738 60.9125 28.9738 61.1749C28.9738 61.4292 28.8918 61.6425 28.7278 61.8147C28.5637 61.9788 28.3505 62.0608 28.088 62.0608ZM37.9232 70.5254C37.915 69.656 37.7632 68.8809 37.468 68.2001C37.1809 67.5193 36.7585 66.9534 36.2007 66.5022C35.6512 66.0511 34.9786 65.7271 34.183 65.5303L34.589 63.4879C35.6553 63.7258 36.5739 64.1728 37.3449 64.829C38.1241 65.4852 38.727 66.2972 39.1535 67.265C39.5882 68.2329 39.8097 69.3197 39.8179 70.5254H37.9232ZM33.2603 70.5254V68.3354H39.1781V70.5254H33.2603ZM41.3844 74.0195V71.8295H43.5744C44.1403 71.8295 44.534 71.7393 44.7555 71.5589C44.977 71.3866 45.0877 71.1282 45.0877 70.7838V64.5706H46.9701V70.7838C46.9701 71.4481 46.8306 72.0223 46.5518 72.5062C46.2729 72.9983 45.8792 73.3715 45.3707 73.6258C44.8621 73.8883 44.2634 74.0195 43.5744 74.0195H41.3844ZM44.3495 70.5254C43.6441 70.5254 43.029 70.3778 42.504 70.0825C41.9791 69.7872 41.5731 69.3935 41.286 68.9014C40.9989 68.401 40.8554 67.8515 40.8554 67.2527C40.8554 66.7688 40.9456 66.3259 41.1261 65.924C41.3065 65.5139 41.5567 65.1612 41.8766 64.8659C42.2046 64.5624 42.5819 64.3246 43.0084 64.1523C43.435 63.9801 43.8902 63.894 44.3741 63.894C44.8498 63.894 45.3133 63.9678 45.7644 64.1154C46.2155 64.2548 46.6174 64.4066 46.9701 64.5706L46.195 66.5145C45.506 66.1208 44.899 65.924 44.3741 65.924C44.046 65.924 43.7589 65.9896 43.5129 66.1208C43.275 66.2439 43.0864 66.4079 42.9469 66.613C42.8157 66.818 42.7501 67.0354 42.7501 67.265C42.7501 67.4783 42.8116 67.6792 42.9346 67.8679C43.0577 68.0565 43.2381 68.2083 43.476 68.3231C43.722 68.4379 44.0132 68.4954 44.3495 68.4954H46.3057V70.5254H44.3495ZM53.181 70.5254V68.3354H55.5432V70.5254H53.181ZM55.5432 70.5254V68.3354C55.617 68.3354 55.6745 68.4338 55.7155 68.6307C55.7647 68.8275 55.7893 69.09 55.7893 69.4181C55.7893 69.7544 55.7647 70.0251 55.7155 70.2301C55.6745 70.427 55.617 70.5254 55.5432 70.5254ZM52.7135 70.5254C52.7053 69.656 52.5535 68.8809 52.2583 68.2001C51.9712 67.5193 51.5488 66.9534 50.991 66.5022C50.4415 66.0511 49.7689 65.7271 48.9733 65.5303L49.3793 63.4879C50.4456 63.7258 51.3642 64.1728 52.1352 64.829C52.9144 65.4852 53.5173 66.2972 53.9438 67.265C54.3785 68.2329 54.6 69.3197 54.6082 70.5254H52.7135ZM48.0506 70.5254V68.3354H53.9684V70.5254H48.0506ZM55.538 70.5254V68.3354H58.2201V70.5254H55.538ZM58.2201 70.5254V68.3354C58.294 68.3354 58.3514 68.4338 58.3924 68.6307C58.4416 68.8275 58.4662 69.09 58.4662 69.4181C58.4662 69.7544 58.4416 70.0251 58.3924 70.2301C58.3514 70.427 58.294 70.5254 58.2201 70.5254ZM55.538 70.5254C55.4642 70.5254 55.4068 70.427 55.3658 70.2301C55.3166 70.0251 55.292 69.7544 55.292 69.4181C55.292 69.09 55.3166 68.8275 55.3658 68.6307C55.4068 68.4338 55.4642 68.3354 55.538 68.3354V70.5254ZM58.2173 70.5254V68.3354H60.8994V70.5254H58.2173ZM60.8994 70.5254V68.3354C60.9733 68.3354 61.0307 68.4338 61.0717 68.6307C61.1209 68.8275 61.1455 69.09 61.1455 69.4181C61.1455 69.7544 61.1209 70.0251 61.0717 70.2301C61.0307 70.427 60.9733 70.5254 60.8994 70.5254ZM58.2173 70.5254C58.1435 70.5254 58.0861 70.427 58.0451 70.2301C57.9959 70.0251 57.9713 69.7544 57.9713 69.4181C57.9713 69.09 57.9959 68.8275 58.0451 68.6307C58.0861 68.4338 58.1435 68.3354 58.2173 68.3354V70.5254ZM60.8967 70.5254V68.3354H63.5788V70.5254H60.8967ZM63.5788 70.5254V68.3354C63.6526 68.3354 63.71 68.4338 63.751 68.6307C63.8002 68.8275 63.8248 69.09 63.8248 69.4181C63.8248 69.7544 63.8002 70.0251 63.751 70.2301C63.71 70.427 63.6526 70.5254 63.5788 70.5254ZM60.8967 70.5254C60.8228 70.5254 60.7654 70.427 60.7244 70.2301C60.6752 70.0251 60.6506 69.7544 60.6506 69.4181C60.6506 69.09 60.6752 68.8275 60.7244 68.6307C60.7654 68.4338 60.8228 68.3354 60.8967 68.3354V70.5254ZM63.576 70.5254V68.3354H66.2581V70.5254H63.576ZM66.2581 70.5254V68.3354C66.3319 68.3354 66.3893 68.4338 66.4303 68.6307C66.4795 68.8275 66.5041 69.09 66.5041 69.4181C66.5041 69.7544 66.4795 70.0251 66.4303 70.2301C66.3893 70.427 66.3319 70.5254 66.2581 70.5254ZM63.576 70.5254C63.5022 70.5254 63.4447 70.427 63.4037 70.2301C63.3545 70.0251 63.3299 69.7544 63.3299 69.4181C63.3299 69.09 63.3545 68.8275 63.4037 68.6307C63.4447 68.4338 63.5022 68.3354 63.576 68.3354V70.5254ZM66.2553 70.5254V68.3354H68.9374V70.5254H66.2553ZM68.9374 70.5254V68.3354C69.0112 68.3354 69.0686 68.4338 69.1096 68.6307C69.1588 68.8275 69.1835 69.09 69.1835 69.4181C69.1835 69.7544 69.1588 70.0251 69.1096 70.2301C69.0686 70.427 69.0112 70.5254 68.9374 70.5254ZM66.2553 70.5254C66.1815 70.5254 66.1241 70.427 66.083 70.2301C66.0338 70.0251 66.0092 69.7544 66.0092 69.4181C66.0092 69.09 66.0338 68.8275 66.083 68.6307C66.1241 68.4338 66.1815 68.3354 66.2553 68.3354V70.5254ZM68.9346 70.5254V68.3354H71.6167V70.5254H68.9346ZM71.6167 70.5254V68.3354C71.6905 68.3354 71.7479 68.4338 71.7889 68.6307C71.8382 68.8275 71.8628 69.09 71.8628 69.4181C71.8628 69.7544 71.8382 70.0251 71.7889 70.2301C71.7479 70.427 71.6905 70.5254 71.6167 70.5254ZM68.9346 70.5254C68.8608 70.5254 68.8034 70.427 68.7624 70.2301C68.7131 70.0251 68.6885 69.7544 68.6885 69.4181C68.6885 69.09 68.7131 68.8275 68.7624 68.6307C68.8034 68.4338 68.8608 68.3354 68.9346 68.3354V70.5254ZM71.6139 70.5254V68.3354H74.296V70.5254H71.6139ZM74.296 70.5254V68.3354C74.3698 68.3354 74.4273 68.4338 74.4683 68.6307C74.5175 68.8275 74.5421 69.09 74.5421 69.4181C74.5421 69.7544 74.5175 70.0251 74.4683 70.2301C74.4273 70.427 74.3698 70.5254 74.296 70.5254ZM71.6139 70.5254C71.5401 70.5254 71.4827 70.427 71.4417 70.2301C71.3925 70.0251 71.3679 69.7544 71.3679 69.4181C71.3679 69.09 71.3925 68.8275 71.4417 68.6307C71.4827 68.4338 71.5401 68.3354 71.6139 68.3354V70.5254ZM74.2932 70.5254V68.3354H76.9753V70.5254H74.2932ZM76.9753 70.5254V68.3354C77.0492 68.3354 77.1066 68.4338 77.1476 68.6307C77.1968 68.8275 77.2214 69.09 77.2214 69.4181C77.2214 69.7544 77.1968 70.0251 77.1476 70.2301C77.1066 70.427 77.0492 70.5254 76.9753 70.5254ZM74.2932 70.5254C74.2194 70.5254 74.162 70.427 74.121 70.2301C74.0718 70.0251 74.0472 69.7544 74.0472 69.4181C74.0472 69.09 74.0718 68.8275 74.121 68.6307C74.162 68.4338 74.2194 68.3354 74.2932 68.3354V70.5254ZM76.9725 70.5254V68.3354H79.6546V70.5254H76.9725ZM79.6546 70.5254V68.3354C79.7285 68.3354 79.7859 68.4338 79.8269 68.6307C79.8761 68.8275 79.9007 69.09 79.9007 69.4181C79.9007 69.7544 79.8761 70.0251 79.8269 70.2301C79.7859 70.427 79.7285 70.5254 79.6546 70.5254ZM76.9725 70.5254C76.8987 70.5254 76.8413 70.427 76.8003 70.2301C76.7511 70.0251 76.7265 69.7544 76.7265 69.4181C76.7265 69.09 76.7511 68.8275 76.8003 68.6307C76.8413 68.4338 76.8987 68.3354 76.9725 68.3354V70.5254ZM86.7016 70.5254V68.3354H88.4241V70.5254H86.7016ZM79.6519 70.5254C79.578 70.5254 79.5206 70.427 79.4796 70.2301C79.4304 70.0251 79.4058 69.7544 79.4058 69.4181C79.4058 69.09 79.4304 68.8275 79.4796 68.6307C79.5206 68.4338 79.578 68.3354 79.6519 68.3354V70.5254ZM85.1022 69.332V67.2404C85.1022 66.9452 85.0161 66.6868 84.8438 66.4653C84.6716 66.2357 84.4214 66.0552 84.0933 65.924C83.7652 65.7928 83.3674 65.7271 82.8999 65.7271C82.5554 65.7271 82.2109 65.7681 81.8664 65.8502C81.5219 65.924 81.2226 66.0183 80.9683 66.1331L80.1563 64.3246C80.5664 64.0621 81.0052 63.8652 81.4727 63.734C81.9485 63.6028 82.4283 63.5372 82.9122 63.5372C83.4618 63.5372 83.9785 63.6233 84.4624 63.7955C84.9545 63.9596 85.3893 64.2015 85.7666 64.5214C86.1521 64.8331 86.4514 65.2186 86.6647 65.6779C86.878 66.1372 86.9846 66.6581 86.9846 67.2404V69.332H85.1022ZM79.6519 70.5254V68.3354H87.4521L87.0584 70.5254H79.6519ZM88.4241 70.5254V68.3354C88.4979 68.3354 88.5553 68.4338 88.5963 68.6307C88.6455 68.8275 88.6701 69.09 88.6701 69.4181C88.6701 69.7544 88.6455 70.0251 88.5963 70.2301C88.5553 70.427 88.4979 70.5254 88.4241 70.5254ZM88.4227 70.5254V68.3354H91.1048V70.5254H88.4227ZM91.1048 70.5254V68.3354C91.1786 68.3354 91.236 68.4338 91.2771 68.6307C91.3263 68.8275 91.3509 69.09 91.3509 69.4181C91.3509 69.7544 91.3263 70.0251 91.2771 70.2301C91.236 70.427 91.1786 70.5254 91.1048 70.5254ZM88.4227 70.5254C88.3489 70.5254 88.2915 70.427 88.2505 70.2301C88.2013 70.0251 88.1766 69.7544 88.1766 69.4181C88.1766 69.09 88.2013 68.8275 88.2505 68.6307C88.2915 68.4338 88.3489 68.3354 88.4227 68.3354V70.5254ZM91.102 70.5254V68.3354H93.7841V70.5254H91.102ZM93.7841 70.5254V68.3354C93.8579 68.3354 93.9154 68.4338 93.9564 68.6307C94.0056 68.8275 94.0302 69.09 94.0302 69.4181C94.0302 69.7544 94.0056 70.0251 93.9564 70.2301C93.9154 70.427 93.8579 70.5254 93.7841 70.5254ZM91.102 70.5254C91.0282 70.5254 90.9708 70.427 90.9298 70.2301C90.8806 70.0251 90.856 69.7544 90.856 69.4181C90.856 69.09 90.8806 68.8275 90.9298 68.6307C90.9708 68.4338 91.0282 68.3354 91.102 68.3354V70.5254ZM93.7813 70.5254V68.3354H96.4634V70.5254H93.7813ZM96.4634 70.5254V68.3354C96.5373 68.3354 96.5947 68.4338 96.6357 68.6307C96.6849 68.8275 96.7095 69.09 96.7095 69.4181C96.7095 69.7544 96.6849 70.0251 96.6357 70.2301C96.5947 70.427 96.5373 70.5254 96.4634 70.5254ZM93.7813 70.5254C93.7075 70.5254 93.6501 70.427 93.6091 70.2301C93.5599 70.0251 93.5353 69.7544 93.5353 69.4181C93.5353 69.09 93.5599 68.8275 93.6091 68.6307C93.6501 68.4338 93.7075 68.3354 93.7813 68.3354V70.5254ZM106.229 70.5254C105.614 70.5254 105.085 70.4024 104.642 70.1563C104.208 69.902 103.871 69.537 103.633 69.0613C103.404 68.5774 103.289 67.995 103.289 67.3142V67.0682L104.974 67.1789L105.061 67.4619C105.077 67.6915 105.118 67.872 105.184 68.0032C105.249 68.1263 105.364 68.2124 105.528 68.2616C105.7 68.3108 105.934 68.3354 106.229 68.3354H106.685V70.5254H106.229ZM96.4607 70.5254C96.3868 70.5254 96.3294 70.427 96.2884 70.2301C96.2392 70.0251 96.2146 69.7544 96.2146 69.4181C96.2146 69.09 96.2392 68.8275 96.2884 68.6307C96.3294 68.4338 96.3868 68.3354 96.4607 68.3354V70.5254ZM96.4607 70.5254V68.3354C96.8051 68.3354 97.0963 68.2821 97.3342 68.1755C97.5802 68.0688 97.8058 67.9007 98.0109 67.671C98.2159 67.4414 98.4292 67.1584 98.6506 66.8221C98.8557 66.5186 99.0771 66.2152 99.315 65.9117C99.5529 65.6 99.8153 65.317 100.102 65.0628C100.389 64.8003 100.709 64.5911 101.062 64.4353C101.423 64.2795 101.829 64.2015 102.28 64.2015C102.739 64.2015 103.145 64.3 103.498 64.4968C103.851 64.6855 104.146 64.9479 104.384 65.2842C104.622 65.6205 104.802 66.0142 104.925 66.4653C105.048 66.9082 105.11 67.3881 105.11 67.9048C105.11 68.3641 105.052 68.8604 104.938 69.3935C104.823 69.9184 104.655 70.4065 104.433 70.8576L102.637 70.0702C102.826 69.7421 102.969 69.3935 103.067 69.0244C103.166 68.6553 103.215 68.2821 103.215 67.9048C103.215 67.3717 103.129 66.9821 102.957 66.736C102.793 66.4817 102.559 66.3546 102.255 66.3546C102.05 66.3546 101.841 66.4161 101.628 66.5391C101.415 66.654 101.189 66.8385 100.951 67.0928C100.713 67.3471 100.459 67.6792 100.189 68.0894C99.8112 68.6553 99.438 69.1187 99.0689 69.4796C98.708 69.8323 98.3225 70.0948 97.9124 70.267C97.5023 70.4393 97.0184 70.5254 96.4607 70.5254ZM104.335 68.6676L104.433 70.8576C103.621 70.9068 102.916 70.9027 102.317 70.8453C101.718 70.7879 101.193 70.6812 100.742 70.5254C100.299 70.3695 99.9015 70.1727 99.5488 69.9348C99.2043 69.697 98.8803 69.4222 98.5768 69.1105L99.8317 67.7818C100.111 68.0688 100.451 68.2862 100.853 68.4338C101.255 68.5733 101.739 68.6594 102.305 68.6922C102.871 68.7168 103.547 68.7086 104.335 68.6676ZM106.685 70.5254V68.3354C106.758 68.3354 106.816 68.4338 106.857 68.6307C106.906 68.8275 106.931 69.09 106.931 69.4181C106.931 69.7544 106.906 70.0251 106.857 70.2301C106.816 70.427 106.758 70.5254 106.685 70.5254ZM106.685 70.5254V68.3354H108.432V59.8708H110.327V70.5254H106.685ZM106.685 70.5254C106.611 70.5254 106.554 70.427 106.513 70.2301C106.464 70.0251 106.439 69.7544 106.439 69.4181C106.439 69.09 106.464 68.8275 106.513 68.6307C106.554 68.4338 106.611 68.3354 106.685 68.3354V70.5254ZM111.897 70.5254V59.8708H113.792V70.5254H111.897Z" fill="white"/>
<path d="M39.2949 81.0754C39.5826 81.0754 39.8173 81.1662 39.999 81.3479C40.1807 81.5221 40.2716 81.753 40.2716 82.0407C40.2716 82.3284 40.1807 82.5631 39.999 82.7448C39.8173 82.9265 39.5826 83.0174 39.2949 83.0174C39.0148 83.0174 38.7839 82.9265 38.6021 82.7448C38.4204 82.5631 38.3296 82.3284 38.3296 82.0407C38.3296 81.753 38.4204 81.5221 38.6021 81.3479C38.7839 81.1662 39.0148 81.0754 39.2949 81.0754ZM42.3739 74.9654H44.4522V81.1776H47.8252V82.9265H42.3739V74.9654ZM49.6818 74.9654H51.7601V82.9265H49.6818V74.9654ZM54.217 74.9654H56.477L58.7824 79.6557L61.0765 74.9654H63.3365V82.9265H61.4967L61.4853 77.8273L59.4525 82.1315H58.1124L56.0681 77.8273V82.9265H54.217V74.9654ZM65.7947 74.9654H67.873V82.9265H65.7947V74.9654ZM69.6371 74.9654H76.4626V76.6462H74.0777V82.9265H71.9994V76.6462H69.6371V74.9654ZM78.2145 74.9654H84.4948V76.6008H80.2928V78.1226H84.0859V79.7466H80.2928V81.2911H84.6084V82.9265H78.2145V74.9654ZM90.2164 74.9654C90.8448 74.9654 91.4164 75.0638 91.9313 75.2607C92.4537 75.4499 92.9004 75.7225 93.2714 76.0784C93.65 76.4266 93.9414 76.843 94.1459 77.3276C94.3503 77.8122 94.4525 78.3497 94.4525 78.9403C94.4525 79.5384 94.3465 80.0797 94.1345 80.5643C93.9301 81.0489 93.6386 81.4691 93.26 81.8249C92.8815 82.1807 92.4272 82.4533 91.8972 82.6426C91.3672 82.8319 90.7805 82.9265 90.1369 82.9265H86.7866V74.9654H90.2164ZM90.2732 81.2684C90.576 81.2684 90.8524 81.2154 91.1022 81.1094C91.3521 80.9959 91.5679 80.8369 91.7496 80.6324C91.9389 80.428 92.0827 80.1857 92.1811 79.9056C92.2796 79.6179 92.3288 79.3037 92.3288 78.963C92.3288 78.6147 92.2758 78.3005 92.1698 78.0204C92.0638 77.7327 91.9124 77.4866 91.7155 77.2822C91.5262 77.0702 91.2991 76.9112 91.0341 76.8052C90.7767 76.6916 90.489 76.6348 90.171 76.6348H88.8649V81.2684H90.2732ZM106.118 77.6342C105.86 77.3087 105.554 77.0513 105.198 76.862C104.842 76.6727 104.49 76.5781 104.142 76.5781C103.839 76.5781 103.555 76.6386 103.29 76.7598C103.025 76.8733 102.794 77.0361 102.597 77.2481C102.4 77.4525 102.249 77.6986 102.143 77.9863C102.037 78.2664 101.984 78.5731 101.984 78.9062C101.984 79.2393 102.037 79.5498 102.143 79.8375C102.249 80.1176 102.4 80.3637 102.597 80.5757C102.794 80.7876 103.025 80.9542 103.29 81.0754C103.555 81.1889 103.839 81.2457 104.142 81.2457C104.475 81.2457 104.815 81.1624 105.164 80.9959C105.52 80.8217 105.838 80.5908 106.118 80.3031L107.333 81.5864C107.045 81.8893 106.72 82.1542 106.356 82.3814C105.993 82.601 105.61 82.7713 105.209 82.8924C104.815 83.0136 104.422 83.0742 104.028 83.0742C103.43 83.0742 102.877 82.9719 102.37 82.7675C101.863 82.5555 101.42 82.264 101.041 81.893C100.67 81.5145 100.379 81.0754 100.167 80.5757C99.9548 80.0684 99.8488 79.5195 99.8488 78.9289C99.8488 78.3459 99.9548 77.8084 100.167 77.3162C100.379 76.8165 100.678 76.3812 101.064 76.0102C101.45 75.6392 101.901 75.3515 102.415 75.1471C102.938 74.9427 103.502 74.8405 104.108 74.8405C104.501 74.8405 104.895 74.8972 105.289 75.0108C105.682 75.1168 106.053 75.272 106.402 75.4764C106.75 75.6809 107.057 75.9231 107.322 76.2033L106.118 77.6342ZM112.792 74.8405C113.413 74.8405 113.98 74.9427 114.495 75.1471C115.018 75.3515 115.472 75.6392 115.858 76.0102C116.252 76.3812 116.555 76.8165 116.767 77.3162C116.986 77.8084 117.096 78.3459 117.096 78.9289C117.096 79.5195 116.986 80.0684 116.767 80.5757C116.555 81.0754 116.252 81.5145 115.858 81.893C115.472 82.264 115.018 82.5555 114.495 82.7675C113.98 82.9719 113.413 83.0742 112.792 83.0742C112.178 83.0742 111.611 82.9719 111.088 82.7675C110.566 82.5555 110.108 82.264 109.714 81.893C109.328 81.5145 109.025 81.0754 108.805 80.5757C108.593 80.0684 108.487 79.5195 108.487 78.9289C108.487 78.3459 108.593 77.8046 108.805 77.3049C109.025 76.8052 109.328 76.3736 109.714 76.0102C110.108 75.6392 110.566 75.3515 111.088 75.1471C111.611 74.9427 112.178 74.8405 112.792 74.8405ZM112.814 76.5781C112.519 76.5781 112.235 76.6386 111.963 76.7598C111.698 76.8733 111.463 77.0399 111.259 77.2595C111.062 77.4715 110.906 77.7213 110.793 78.009C110.679 78.2891 110.623 78.5996 110.623 78.9403C110.623 79.2734 110.679 79.5876 110.793 79.8829C110.906 80.1706 111.065 80.4242 111.27 80.6438C111.474 80.8558 111.709 81.0224 111.974 81.1435C112.239 81.2646 112.519 81.3252 112.814 81.3252C113.11 81.3252 113.386 81.2646 113.643 81.1435C113.908 81.0224 114.139 80.8558 114.336 80.6438C114.533 80.4242 114.685 80.1706 114.791 79.8829C114.904 79.5876 114.961 79.2734 114.961 78.9403C114.961 78.5996 114.904 78.2891 114.791 78.009C114.685 77.7213 114.533 77.4715 114.336 77.2595C114.139 77.0399 113.908 76.8733 113.643 76.7598C113.386 76.6386 113.11 76.5781 112.814 76.5781Z" fill="white"/>
<path d="M48.8377 34.8871C47.3396 36.9339 45.8527 37.9573 44.3769 37.9573C43.2645 37.9573 42.167 37.4085 41.0842 36.311C40.0089 35.2208 39.2784 34.1121 38.8928 32.9849L39.4935 33.352C39.9014 33.5744 40.4761 33.8303 41.2177 34.1195C41.9593 34.4162 42.7195 34.5608 43.4981 34.5534C44.9813 34.4792 46.2569 33.9564 47.3248 32.9849C48.4001 32.0134 48.9378 31.3237 48.9378 30.9158C48.923 30.0184 48.0219 28.7837 46.2347 27.2115L47.7475 24.0077C48.1999 24.4527 48.6078 24.8606 48.9712 25.2314C49.3346 25.6022 49.6386 26.0323 49.8834 26.5218C50.0391 26.8184 50.1615 27.1373 50.2504 27.4785H51.2182V31.0048H50.4507C50.3024 32.1839 49.7647 33.478 48.8377 34.8871ZM55.9917 31.0048H50.552V27.4785H55.9917V31.0048ZM60.9899 31.0048H55.5502V27.4785H60.9899V31.0048ZM71.3832 31.0048H60.5484V27.4785H67.8458C68.0089 27.4785 68.0905 27.3413 68.0905 27.0669C68.0905 26.8666 67.8791 26.3735 67.4564 25.5874C67.0337 24.7938 66.6518 24.2562 66.3106 23.9744L68.2907 21.1155C68.9656 21.8719 69.5033 22.9584 69.9037 24.3748C70.3116 25.7839 70.5155 26.8184 70.5155 27.4785H71.3832V31.0048ZM65.988 34.9649L67.4008 33.2296L69.5478 35.0539L67.9793 36.9005L65.9213 35.1986L64.5085 36.9005L62.395 35.1096L63.9523 33.2518L65.988 34.9649ZM76.1526 31.0048H70.713V27.4785H76.1526V31.0048ZM81.1508 31.0048H75.7111V27.4785H81.1508V31.0048ZM100.911 26.4105C100.911 26.7962 100.907 27.1521 100.9 27.4785H101.578V31.0048H100.699L100.477 30.8268C99.839 31.0344 99.2383 31.1346 98.6747 31.1271C98.0666 31.1346 97.2397 31.0233 96.194 30.7934C95.1558 30.5561 94.1509 30.278 93.1794 29.9591C92.7715 30.2038 92.1374 30.4857 91.2772 30.8045C90.899 30.9751 89.9794 31.0604 88.5184 31.0604C86.5977 31.0604 85.1627 30.7601 84.2134 30.1594C83.3754 30.723 82.4447 31.0048 81.4213 31.0048H80.7093V27.4785C82.8822 27.5378 84.0502 27.434 84.2134 27.167C84.3321 27.0335 84.3914 26.6849 84.3914 26.1213C84.3914 25.5354 84.358 25.1016 84.2913 24.8198L86.3826 22.6951C86.4123 22.8286 86.4382 23.0029 86.4605 23.2179C86.4827 23.433 86.4901 23.6889 86.4827 23.9855C86.4827 24.2451 86.4493 24.5677 86.3826 24.9533C86.3233 25.3315 86.2565 25.6726 86.1824 25.9767C86.1082 26.2808 86.0377 26.5292 85.971 26.722C85.9043 26.9074 85.8709 27.0335 85.8709 27.1002C85.8931 27.1966 86.0526 27.293 86.3492 27.3895C86.6459 27.4859 87.343 27.5341 88.4405 27.5341H91.5775C92.0225 27.5341 92.3377 27.4302 92.5231 27.2226C92.6862 27.0446 92.7864 26.6849 92.8234 26.1436C92.8308 25.6838 92.8012 25.3945 92.7344 25.2759L95.0482 22.8397C95.1002 23.0399 95.1261 23.2291 95.1261 23.407C95.1261 23.7853 95.0853 24.2339 95.0037 24.7531C94.9296 25.2648 94.6849 25.9619 94.2696 26.8444C95.2114 27.5341 96.3275 27.8789 97.6179 27.8789C98.1222 27.8493 98.467 27.7788 98.6524 27.6676C98.8453 27.5563 98.9417 27.4302 98.9417 27.2893C98.8008 26.1399 98.5449 25.2648 98.1741 24.6641L100.388 22.417C100.744 23.4923 100.918 24.8235 100.911 26.4105ZM106.358 31.0048H100.918V27.4785H106.358V31.0048ZM111.356 31.0048H105.917V27.4785H111.356V31.0048ZM121.026 28.3795C121.026 30.1297 120.785 31.0048 120.303 31.0048H110.915V27.4785H118.145C118.308 27.4785 118.39 27.3413 118.39 27.0669C118.39 26.8666 118.134 26.3141 117.623 25.4094C117.118 24.4972 116.796 24.0411 116.655 24.0411L118.546 21.1044C119.154 21.6086 119.74 22.7136 120.303 24.4193C120.785 26.125 121.026 27.4451 121.026 28.3795ZM115.987 34.9649L117.4 33.2296L119.547 35.0539L117.978 36.9005L115.921 35.1986L114.508 36.9005L112.394 35.1096L113.952 33.2518L115.987 34.9649Z" fill="white"/>
<path d="M38.712 43.3938H42.1758L45.3179 49.129L48.3842 43.3938H51.8481L45.5261 55.2428H45.0907L38.712 43.3938ZM43.5954 50.8325H47.0593V56.6624H43.5954V50.8325ZM56.3133 43.3938H59.8718L65.4366 56.6624H61.7456L57.9979 46.8576L54.1744 56.6624H50.616L56.3133 43.3938ZM54.023 51.6654H61.7646V54.2774H54.023V51.6654ZM75.7426 47.3498C75.2757 47.0595 74.7773 46.8135 74.2473 46.6116C73.7299 46.397 73.2252 46.233 72.7331 46.1194C72.2536 45.9933 71.8308 45.9302 71.4649 45.9302C71.0485 45.9302 70.7141 46.0122 70.4617 46.1762C70.2093 46.3276 70.0831 46.5674 70.0831 46.8955C70.0831 47.2236 70.203 47.4949 70.4428 47.7094C70.6952 47.9113 71.0295 48.0816 71.446 48.2205C71.8624 48.3593 72.323 48.4981 72.8277 48.6369C73.3325 48.7757 73.8309 48.9397 74.323 49.129C74.8152 49.3183 75.2694 49.5643 75.6858 49.8672C76.1023 50.1574 76.4367 50.536 76.689 51.0029C76.9414 51.4698 77.0676 52.0502 77.0676 52.7443C77.0676 53.6402 76.8278 54.3973 76.3483 55.0156C75.8688 55.6213 75.2253 56.0819 74.4177 56.3974C73.6101 56.7002 72.7141 56.8516 71.7299 56.8516C70.9854 56.8516 70.2409 56.7696 69.4964 56.6056C68.7645 56.4289 68.0642 56.1828 67.3954 55.8674C66.7392 55.5393 66.1461 55.1544 65.6161 54.7128L66.96 52.0439C67.4143 52.4477 67.9254 52.801 68.4932 53.1039C69.061 53.4067 69.6352 53.6465 70.2156 53.8231C70.7961 53.9872 71.3135 54.0692 71.7677 54.0692C72.2851 54.0692 72.6889 53.9746 72.9791 53.7853C73.282 53.5834 73.4334 53.2932 73.4334 52.9146C73.4334 52.5865 73.3072 52.3215 73.0548 52.1196C72.8025 51.9051 72.4681 51.7284 72.0517 51.5896C71.6352 51.4508 71.1747 51.3183 70.6699 51.1922C70.1778 51.0533 69.6793 50.8956 69.1746 50.719C68.6825 50.5297 68.2282 50.2962 67.8118 50.0186C67.3954 49.7284 67.061 49.3561 66.8086 48.9019C66.5688 48.4476 66.449 47.8797 66.449 47.1983C66.449 46.3781 66.6635 45.6652 67.0925 45.0595C67.5342 44.4412 68.1525 43.968 68.9475 43.6399C69.7551 43.2992 70.6888 43.1288 71.7488 43.1288C72.7205 43.1288 73.6732 43.2676 74.6069 43.5452C75.5407 43.8228 76.3546 44.1825 77.0487 44.6241L75.7426 47.3498ZM78.8371 43.3938H89.3043V46.1194H82.3009V48.6558H88.6229V51.3625H82.3009V53.9367H89.4935V56.6624H78.8371V43.3938ZM91.6098 43.3938H102.077V46.1194H95.0736V48.6558H101.396V51.3625H95.0736V53.9367H102.266V56.6624H91.6098V43.3938ZM110.345 43.3938C112.111 43.3938 113.474 43.8039 114.433 44.6241C115.392 45.4317 115.872 46.5737 115.872 48.0501C115.872 49.6022 115.392 50.8136 114.433 51.6843C113.474 52.5424 112.111 52.9714 110.345 52.9714H107.846V56.6624H104.383V43.3938H110.345ZM110.345 50.2457C111.064 50.2457 111.613 50.0691 111.992 49.7158C112.383 49.3624 112.578 48.8388 112.578 48.1447C112.578 47.4759 112.383 46.9712 111.992 46.6305C111.613 46.2898 111.064 46.1194 110.345 46.1194H107.846V50.2457H110.345ZM109.739 51.7032H113.108L116.269 56.6624H112.351L109.739 51.7032Z" fill="white"/>
</svg>
