<svg width="20" height="20" viewBox="0 0 20 20" fill="none" xmlns="http://www.w3.org/2000/svg">
<path d="M13.2447 19.1098C15.1799 18.8821 17.0206 18.1475 18.5807 16.9801C18.7414 16.8598 18.8743 16.7064 18.9706 16.5304C19.0669 16.3543 19.1243 16.1596 19.1388 15.9594C19.1534 15.7593 19.1248 15.5583 19.0551 15.3701C18.9853 15.182 18.876 15.011 18.7344 14.8687L15.9259 12.0527C15.7695 11.8959 15.5781 11.7786 15.3674 11.7104C15.1568 11.6422 14.9329 11.6251 14.7144 11.6604C14.4958 11.6957 14.2888 11.7825 14.1103 11.9136C13.9319 12.0447 13.7872 12.2164 13.6882 12.4144L12.5922 14.607L5.39159 7.40638L7.57787 6.31495C7.77591 6.21612 7.94762 6.07162 8.07882 5.89337C8.21002 5.71512 8.29696 5.50822 8.33246 5.28975C8.36796 5.07129 8.351 4.84751 8.28299 4.63689C8.21498 4.42627 8.09786 4.23483 7.9413 4.07838L5.12987 1.26695C4.9877 1.12507 4.8167 1.01541 4.62845 0.945378C4.4402 0.875349 4.2391 0.846595 4.03877 0.861063C3.83843 0.875531 3.64355 0.932884 3.46732 1.02924C3.29108 1.12559 3.13761 1.25869 3.0173 1.41952C1.85081 2.97916 1.11657 4.81901 0.888732 6.75324C0.704732 8.30753 1.29445 9.85553 2.4013 10.9624L9.03616 17.5967C10.143 18.7041 11.6904 19.2938 13.2447 19.1098Z" fill="white"/>
</svg>
