<svg width="23" height="23" viewBox="0 0 23 23" fill="none" xmlns="http://www.w3.org/2000/svg">
<path d="M20.6946 17.4554C19.9186 16.6478 18.039 15.4691 17.1271 14.9941C15.9396 14.3762 15.8419 14.3258 14.9085 15.0421C14.2859 15.5201 13.872 15.9471 13.1433 15.7866C12.4147 15.6261 10.8313 14.721 9.44489 13.2935C8.05847 11.8659 7.13142 10.183 6.97553 9.43287C6.81963 8.68276 7.23991 8.26025 7.6983 7.61564C8.34435 6.70702 8.29549 6.55559 7.74326 5.32896C7.31272 4.37491 6.1384 2.45168 5.35356 1.65412C4.51398 0.797495 4.51398 0.948931 3.973 1.18113C3.53257 1.37254 3.11004 1.60521 2.7107 1.87622C1.9288 2.41281 1.49484 2.85854 1.19136 3.52839C0.88788 4.19824 0.751535 5.76863 2.31877 8.70951C3.88601 11.6504 4.98557 13.1542 7.26141 15.4984C9.53725 17.8426 11.2873 19.1031 13.8456 20.5851C17.0103 22.416 18.2243 22.0591 18.8747 21.7461C19.5252 21.4331 19.9586 20.9889 20.4791 20.1813C20.7421 19.7695 20.9679 19.3335 21.1535 18.8789C21.3788 18.3222 21.5254 18.3222 20.6946 17.4554Z" stroke="#3D2427" stroke-width="2" stroke-miterlimit="10"/>
</svg>
