<svg width="16" height="12" viewBox="0 0 16 12" fill="none" xmlns="http://www.w3.org/2000/svg">
<path d="M15.3764 0.966606C14.7988 0.280051 13.7325 0 11.6961 0H4.30379C2.22075 0 1.13636 0.298116 0.560981 1.02906C0 1.74173 0 2.79179 0 4.24511V7.01512C0 9.83066 0.6656 11.2602 4.30379 11.2602H11.6961C13.4621 11.2602 14.4407 11.0131 15.0738 10.4072C15.723 9.78586 16 8.77141 16 7.01512V4.24511C16 2.71246 15.9566 1.65621 15.3764 0.966606ZM10.2721 6.01254L6.91525 7.76692C6.84021 7.80614 6.75814 7.8256 6.67618 7.8256C6.58338 7.8256 6.49079 7.80062 6.40877 7.75097C6.25435 7.65739 6.16005 7.49001 6.16005 7.30947V3.81197C6.16005 3.63174 6.25409 3.46452 6.40821 3.37089C6.56237 3.27726 6.75412 3.27086 6.91406 3.35396L10.2709 5.09703C10.4417 5.1857 10.5489 5.36201 10.5492 5.55437C10.5494 5.74689 10.4426 5.92346 10.2721 6.01254Z" fill="#3D2427"/>
</svg>
